<?xml version="1.0" encoding="UTF-8"?>
<!-- Generator: Adobe Illustrator 27.8.1, SVG Export Plug-In . SVG Version: 6.00 Build 0)  -->
<svg version="1.1" id="Layer_1" xmlns="http://www.w3.org/2000/svg" xmlns:xlink="http://www.w3.org/1999/xlink" x="0px" y="0px" viewBox="0 0 348 288.8" style="enable-background:new 0 0 348 288.8;" xml:space="preserve">
<style type="text/css">
	.st0{fill:#F0EEE6;}
	.st1{fill:#2B2E3D;}
	.st2{fill:#E5E1DA;}
	.st3{opacity:0.5;}
	.st4{fill:#2A2D3C;stroke:#FFFFFF;stroke-width:0.8392;stroke-miterlimit:10;}
	.st5{fill:none;}
	.st6{fill:#FFFFFF;}
	.st7{fill:#FFFFFF;stroke:#572131;stroke-width:0.8392;stroke-miterlimit:10;}
</style>
<g>
	<path class="st5" d="M123.2,30.1c2.5,0,6.5-2.8,8.5-4.2c-6,1.8-11.5-1.3-17.5,0h1.2C118.5,27.8,118.8,30.2,123.2,30.1z"/>
	<path class="st6" d="M148.7,248c0-3.7-3-6.7-6.7-6.7c-3.7,0-6.7,3-6.7,6.7s3,6.7,6.7,6.7C145.7,254.6,148.7,251.6,148.7,248z    M138.1,248c0-2.2,1.8-4,4-4c2.2,0,4,1.8,4,4c0,2.2-1.8,4-4,4C139.8,251.9,138.1,250.2,138.1,248z"/>
	<path class="st6" d="M128.9,251.4c0-2-1.6-3.6-3.6-3.6c-2,0-3.6,1.6-3.6,3.6c0,2,1.6,3.6,3.6,3.6   C127.3,255,128.9,253.4,128.9,251.4z"/>
	<path class="st6" d="M160.8,246.9c0-2-1.6-3.6-3.6-3.6c-2,0-3.6,1.6-3.6,3.6c0,2,1.6,3.6,3.6,3.6   C159.2,250.6,160.8,248.9,160.8,246.9z"/>
	<polygon class="st6" points="114.6,255.3 105.6,255.3 107.9,261.5  "/>
	<path class="st6" d="M145.4,207.2c0,0,0.8,5.2,6.2,6.7c6.4,1.8,10.8-4,21.3-5.9c10.5,1.8,14.8,7.7,21.3,5.9   c5.4-1.5,6.2-6.7,6.2-6.7s7.8,2.2,8.4-5c0.6-7.3-6.2-9-6.2-9s1.7-3.9-2.8-6.2c-4.5-2.2-10.1-0.6-10.1-0.6s1.1-6.7-4.5-10.1   c-5.4-3.3-11.9,0.8-12.3,1.1c-0.4-0.3-6.9-4.4-12.3-1.1c-5.6,3.4-4.5,10.1-4.5,10.1s-5.6-1.7-10.1,0.6c-4.5,2.2-2.8,6.2-2.8,6.2   s-6.7,1.7-6.2,9C137.6,209.4,145.4,207.2,145.4,207.2z M155.1,194.9c0.6-6.2,9.9-4.1,9.9-4.1s-3-6,0.6-8.8c2.3-1.8,6.9,0.2,7.3,0   c0.4,0.2,4.9-1.8,7.3,0c3.7,2.8,0.6,8.8,0.6,8.8s9.3-2,9.9,4.1c0.6,6.2-7.4,5.2-7.4,5.2s2,3,0.1,5c-2.5,2.7-9.8,0.3-10.5,0.1   c0,0,0,0,0,0c0,0,0,0,0,0c0,0,0,0,0,0c0,0,0,0,0,0c-0.8,0.3-8.1,2.6-10.5-0.1c-1.9-2,0.1-5,0.1-5S154.5,201.1,155.1,194.9z"/>
	<path class="st6" d="M172.6,201.8L172.6,201.8c0.1,0.1,0.2,0,0.3,0c0.1,0,0.2,0,0.3,0v-0.1c2.7-0.3,4.8-2.5,4.8-5.2   c0-2.7-2.1-4.9-4.8-5.2v-0.1c-0.1,0-0.2,0-0.3,0c-0.1,0-0.2,0-0.3,0v0.1c-2.7,0.3-4.8,2.5-4.8,5.2   C167.7,199.4,169.9,201.6,172.6,201.8z M172.8,194.3c1.3,0.1,2.3,1.1,2.3,2.4c0,1.2-1,2.2-2.3,2.4c-1.3-0.1-2.3-1.1-2.3-2.4   C170.6,195.4,171.6,194.4,172.8,194.3z"/>
	<path class="st6" d="M115.8,223c5-2.5,4.7-7.8,4.7-7.8s8.1,0.7,7.3-6.6c-0.9-7.3-7.8-7.6-7.8-7.6s0.9-4.2-3.9-5.5   c-4.8-1.3-10,1.4-10,1.4s-0.2-6.8-6.3-9c-5.4-1.9-10.5,2.2-11.7,3.2c-1.6-0.6-7.7-2.5-12,1.2c-4.9,4.3-2.7,10.7-2.7,10.7   s-5.8-0.7-9.8,2.3c-4,3-1.7,6.5-1.7,6.5s-6.3,2.8-4.5,9.9c1.8,7.1,9.1,3.5,9.1,3.5s1.7,5,7.2,5.6c6.7,0.7,9.9-5.8,20-9.5   c0,0,0,0,0,0C104.5,221.1,109.8,226,115.8,223z M82.8,220.3c-2.2-1.7-0.7-5-0.7-5s-7.6,2.4-8.1-3.8c-0.5-6.2,9-5.8,9-5.8   s-4-5.4-0.9-8.8c1.7-1.8,5.3-1.3,6.6-1.2c0,0,0.1,0,0.2,0c0.2,0,0.4,0,0.4-0.1c0,0,0-0.1,0-0.1c1.2-0.6,4.4-2.4,6.6-1.3   c4.1,2.1,2.3,8.6,2.3,8.6s8.7-3.8,10.5,2.1c1.7,5.9-6.2,6.5-6.2,6.5s2.6,2.5,1.1,4.9c-2,3.3-10.4,2.1-10.4,2.1c0,0,0,0,0,0.1   C92.4,219.1,85.7,222.5,82.8,220.3z"/>
	<path class="st6" d="M96.5,210.1c0-3-2.4-5.4-5.4-5.4c-3,0-5.4,2.4-5.4,5.4c0,3,2.4,5.4,5.4,5.4C94.1,215.5,96.5,213,96.5,210.1z    M91.1,212.6c-1.4,0-2.5-1.1-2.5-2.6c0-1.4,1.1-2.5,2.5-2.5c1.4,0,2.5,1.1,2.5,2.5C93.7,211.5,92.5,212.6,91.1,212.6z"/>
	<path class="st6" d="M245.1,249.4c-0.3-0.2-7.1-4.5-19.5-8.5c-11.4-3.7-29.8-7.9-52.8-6.8c-44-2.2-72,15.1-72.2,15.3   c-0.5,0.3-0.6,1-0.3,1.5c0.2,0.3,0.5,0.5,0.9,0.5c0.2,0,0.4-0.1,0.6-0.2c0.3-0.2,27.7-17.2,71.1-15c0,0,0,0,0,0c0,0,0,0,0,0   c43.4-2.2,70.8,14.8,71.1,15c0.2,0.1,0.4,0.2,0.6,0.2c0.3,0,0.7-0.2,0.9-0.5C245.7,250.4,245.6,249.7,245.1,249.4z"/>
	<path class="st6" d="M247.9,227c-0.1,0.1-11.4,6.3-21.7,3.2c-5.1-1.5-9.2-5.1-12.1-10.6c-0.2-0.3-0.4-0.5-0.8-0.5   c-0.3-0.1-0.7,0-0.9,0.3c-5,4.6-21.2,5.1-30.9,0.8c-3.4-1.5-7.4-4.1-7.7-8.5c0-0.2,0-0.4,0-0.5c0-0.6-0.5-1.1-1.1-1.1c0,0,0,0,0,0   c0,0,0,0,0,0c-0.6,0-1.1,0.5-1.1,1.1c0,0.2,0,0.4,0,0.5c-0.3,4.4-4.3,7-7.7,8.5c-9.7,4.2-25.9,3.8-30.9-0.8   c-0.2-0.2-0.6-0.3-0.9-0.3c-0.3,0.1-0.6,0.3-0.8,0.5c-2.9,5.5-7,9.1-12.1,10.6c-10.3,3.1-21.6-3.1-21.7-3.2   c-0.4-0.2-0.8-0.2-1.2,0.1c-0.3,0.3-0.5,0.7-0.4,1.1l3.4,11.8c0.1,0.5,0.6,0.8,1,0.8c0.1,0,0.2,0,0.3,0c0.6-0.2,0.9-0.7,0.7-1.3   l-2.7-9.5c4,1.8,12.7,4.8,21.2,2.3c5.3-1.6,9.6-5.1,12.7-10.5c6.4,4.4,22.2,4.7,32.1,0.4c3.9-1.7,6.5-3.9,7.9-6.6   c1.4,2.6,4,4.9,7.9,6.6c9.9,4.3,25.7,4,32.1-0.4c3.1,5.4,7.4,9,12.8,10.5c8.5,2.5,17.2-0.6,21.2-2.3l-2.7,9.5   c-0.2,0.6,0.2,1.1,0.7,1.3c0.1,0,0.2,0,0.3,0c0.5,0,0.9-0.3,1-0.8l3.4-11.8c0.1-0.4,0-0.8-0.4-1.1   C248.8,226.8,248.3,226.8,247.9,227z"/>
	<path class="st6" d="M210.3,248c0-3.7-3-6.7-6.7-6.7c-3.7,0-6.7,3-6.7,6.7s3,6.7,6.7,6.7C207.3,254.6,210.3,251.6,210.3,248z    M199.7,248c0-2.2,1.8-4,4-4c2.2,0,4,1.8,4,4c0,2.2-1.8,4-4,4C201.4,251.9,199.7,250.2,199.7,248z"/>
	<path class="st6" d="M224.1,251.4c0-2-1.6-3.6-3.6-3.6c-2,0-3.6,1.6-3.6,3.6c0,2,1.6,3.6,3.6,3.6   C222.5,255,224.1,253.4,224.1,251.4z"/>
	<path class="st6" d="M192.2,246.9c0-2-1.6-3.6-3.6-3.6c-2,0-3.6,1.6-3.6,3.6c0,2,1.6,3.6,3.6,3.6   C190.5,250.6,192.2,248.9,192.2,246.9z"/>
	<polygon class="st6" points="231.1,255.3 237.8,261.5 240,255.3  "/>
	<path class="st6" d="M283.7,211.9c0,0,2.3-3.6-1.7-6.5c-4-3-9.8-2.3-9.8-2.3s2.3-6.4-2.7-10.7c-4.3-3.7-10.4-1.8-12-1.2   c-1.2-1-6.3-5.2-11.7-3.2c-6.1,2.2-6.3,9-6.3,9s-5.2-2.7-10-1.4c-4.8,1.3-3.9,5.5-3.9,5.5s-6.9,0.4-7.8,7.6   c-0.9,7.2,7.3,6.6,7.3,6.6s-0.2,5.2,4.8,7.8c6,3,11.3-1.9,22-1.7c0,0,0,0,0,0c10.1,3.6,13.3,10.2,20,9.5c5.6-0.6,7.2-5.6,7.2-5.6   s7.3,3.6,9.1-3.5C290.1,214.7,283.7,211.9,283.7,211.9z M271.7,211.6c-0.5,6.2-8.1,3.8-8.1,3.8s1.5,3.3-0.7,5   c-2.8,2.2-9.5-1.3-10.4-1.7c0,0,0,0,0-0.1c0,0-8.4,1.1-10.4-2.1c-1.4-2.4,1.1-4.9,1.1-4.9s-8-0.5-6.2-6.5   c1.7-5.9,10.5-2.1,10.5-2.1s-1.8-6.5,2.3-8.6c2.2-1.1,5.4,0.7,6.6,1.3c0,0,0,0.1,0,0.1c0,0.1,0.1,0.1,0.4,0.1c0.1,0,0.2,0,0.2,0   c1.4-0.1,5-0.6,6.6,1.2c3.1,3.4-0.9,8.8-0.9,8.8S272.2,205.4,271.7,211.6z"/>
	<path class="st6" d="M254.6,204.7c-3,0-5.4,2.4-5.4,5.4c0,3,2.4,5.4,5.4,5.4c3,0,5.4-2.4,5.4-5.4   C259.9,207.1,257.5,204.7,254.6,204.7z M254.6,212.6c-1.4,0-2.6-1.1-2.6-2.6c0-1.4,1.1-2.5,2.6-2.5c1.4,0,2.5,1.1,2.5,2.5   C257.1,211.5,256,212.6,254.6,212.6z"/>
	<path class="st6" d="M173.7,252.4l6.5-5.2l0-2.1l-6.5-5.5l-1.8,0l-6.5,5.8l0.1,2.1l6.5,4.9L173.7,252.4z M172.9,242.4l4.4,3.7   l-4.4,3.5l-4.3-3.3L172.9,242.4z"/>
	<path class="st6" d="M220,261.2c-12.6-2.4-29.4-3.8-47.2-3.8c-17.8,0-34.5,1.3-47.2,3.8c-14.3,2.8-21.2,6.5-21.2,11.4   c0,1.3,0.5,2.5,1.5,3.6c4-9.4,41.6-12.8,67.4-12.8c25.1,0,61.5,3.3,67,12.1c0.6-0.9,1-1.9,1-2.9C241.3,267.7,234.3,264,220,261.2z"/>
	<path class="st6" d="M173.3,266.7c-39.9,0-64.4,6.5-64.4,11.1c0,0.2,0,0.4-0.1,0.6c3.5,2.1,9.1,3.9,16.9,5.4   c12.6,2.4,29.4,3.8,47.2,3.8c17.8,0,34.5-1.3,47.2-3.8c8.4-1.6,14.3-3.6,17.7-5.9c0,0,0-0.1,0-0.1   C237.7,273.2,213.2,266.7,173.3,266.7z"/>
	<path class="st6" d="M93.9,91.8c3.6-4.7,13.5-3.6,13.5-3.6S69.6,64.4,58.2,53.6C54.2,55.4,62.9,73.2,93.9,91.8z"/>
	<path class="st6" d="M99.3,113c8.7,6.5,9,15.9,11.5,17.4c10.9-4.4,19.3,3.8,19.3,3.8s-0.5-19.7-8.3-34.7   C114.1,84.6,83.1,92.2,99.3,113z"/>
	<path class="st6" d="M56,62.9c0.3-3.1-3.1-7.8-3.1-7.8L7.5,0C7.5,0-3.4,14.9,56,62.9z"/>
	<path class="st6" d="M53.9,74.1c0.9-1.6,0.9-6.2,0.9-6.2S5.3,18.7,1.2,20.9C-2.8,23,7.2,51.4,53.9,74.1z"/>
	<path class="st6" d="M89.7,98.4c0.6-2.5,2.5-5,2.5-5s-19.9-9-33-25.5c0,0-6.2,16.5,12.5,25.8C80.5,98.2,85.6,98.1,89.7,98.4z"/>
	<path class="st6" d="M64.1,94.3c-1.2-1.2-8.4-5.9-8.7-14.3c0,0-26.5-15.4-41.1-27.1c-2.4-1.9-4.4-1.9-6.8-1.6   C3.7,72.5,58.5,96.8,58.5,96.8S61.3,97.5,64.1,94.3z"/>
	<path class="st6" d="M94.3,113c0,0-5-7.5-3.4-11.5c0,0-16.5-1.9-23-5.3c-3.4,0-4.4,3-4.7,4.7C62.4,105.9,94.3,113,94.3,113z"/>
	<path class="st6" d="M76.9,123c0,0-7.8-5-2.8-12.5c-14-2.5-15.9-10-15.9-10C51.7,99.3,37,87.5,28.3,87.5s6.6,15.8,20.2,24   C61,118.9,76.9,123,76.9,123z"/>
	<path class="st6" d="M99.6,132.6c18.1,5-2.5-16.1-4-16.2c-9.7-0.6-15.3-5.3-18.4-3.7C72.7,115,81.6,127.6,99.6,132.6z"/>
	<path class="st6" d="M92.8,145.4c-0.9-5.9,2.2-10.3,2.2-10.3c-11.2-4.7-49.8-24-50.7-14.6C48.3,132.6,92.1,141.4,92.8,145.4z"/>
	<path class="st6" d="M92.1,147.9c0,0-24.3-12.1-31.1-8.1c-6.9,4,11.8,16.8,20.9,14.6C84.7,151.9,86.9,150.7,92.1,147.9z"/>
	<path class="st6" d="M91.5,166.6c4.7-1.2,8.1-5.9,8.1-5.9s-7.8-3.7-7.5-9c0,0-9.6,3.4-11.5,9.6C78.8,167.5,86.9,167.8,91.5,166.6z"/>
	<path class="st6" d="M102.1,147.9l13.7-0.9l-7.8-10c0,0-11.1-4.3-12.5,5.3C94.6,148.8,102.1,147.9,102.1,147.9z"/>
	<path class="st6" d="M113.3,160.7c8.1,0,15.3-5,15.3-5l-11.5-5.6c0,0-11.8,0.9-21.2,0.3C96.5,159.4,110.5,160.7,113.3,160.7z"/>
	<path class="st6" d="M103.4,175.6c0.6-2.8,3.4-7.8,11.5-11.8c-9.7,0.9-12.5-1.2-12.5-1.2s-6.8,5.6-10.3,8.1   C88.7,173.1,99,178.4,103.4,175.6z"/>
	<path class="st6" d="M120.2,182.1c0,0,2.8-6.9,10.3-10.6c-9.7-3.7-9-8.4-9-8.4s-14,6.5-14.6,14.3   C106.2,185.3,120.2,182.1,120.2,182.1z"/>
	<path class="st6" d="M145.1,175.6c-2.5-2.2-5-6.8-5-6.8s-21.2,12.5-15.9,18.4C127.3,190.5,142.3,180.9,145.1,175.6z"/>
	<path class="st6" d="M133.3,168.8c2.8-0.6,5.3-3.1,5.3-3.1l-3.4-10c0,0-6.2,5-10,6.2C124.5,166.3,130.8,169.3,133.3,168.8z"/>
	<path class="st6" d="M113,135.1c0,10.9,20.9,18.7,20.9,18.7s-2.5-7.2-3.7-16.2C123.5,135.4,119.3,130.8,113,135.1z"/>
	<path class="st6" d="M254.1,91.8c31.1-18.6,39.7-36.4,35.7-38.3c-11.4,10.9-49.1,34.7-49.1,34.7S250.5,87.2,254.1,91.8z"/>
	<path class="st6" d="M248.7,113c16.2-20.9-14.8-28.4-22.5-13.4c-7.8,15-8.3,34.7-8.3,34.7s8.4-8.2,19.3-3.8   C239.7,128.9,240,119.6,248.7,113z"/>
	<path class="st6" d="M340.5,0l-45.5,55.1c0,0-3.4,4.7-3.1,7.8C351.4,14.9,340.5,0,340.5,0z"/>
	<path class="st6" d="M294.1,74.1c46.7-22.7,56.7-51.1,52.6-53.2c-4.1-2.2-53.6,47-53.6,47S293.2,72.5,294.1,74.1z"/>
	<path class="st6" d="M288.9,67.9c-13.1,16.5-33,25.5-33,25.5s1.9,2.5,2.5,5c4-0.3,9.2-0.2,18.1-4.7   C295.1,84.4,288.9,67.9,288.9,67.9z"/>
	<path class="st6" d="M333.7,52.9C319.1,64.6,292.6,80,292.6,80c-0.3,8.4-7.5,13.1-8.7,14.3c2.8,3.1,5.6,2.5,5.6,2.5   s54.8-24.3,51.1-45.5C338,51.1,336.1,51,333.7,52.9z"/>
	<path class="st6" d="M284.8,100.9c-0.3-1.6-1.2-4.7-4.7-4.7c-6.5,3.4-23,5.3-23,5.3c1.6,4-3.4,11.5-3.4,11.5   S285.6,105.9,284.8,100.9z"/>
	<path class="st6" d="M319.7,87.5c-8.7,0-23.3,11.8-29.9,13.1c0,0-1.9,7.5-15.9,10c5,7.5-2.8,12.5-2.8,12.5s15.9-4,28.3-11.5   C313.1,103.3,328.4,87.5,319.7,87.5z"/>
	<path class="st6" d="M270.8,112.7c-3.1-1.6-8.7,3.1-18.4,3.7c-1.6,0.1-22.1,21.2-4,16.2C266.4,127.6,275.3,115,270.8,112.7z"/>
	<path class="st6" d="M253,135.1c0,0,3.1,4.4,2.2,10.3c0.6-4,44.5-12.8,48.6-24.9C302.9,111.2,264.3,130.5,253,135.1z"/>
	<path class="st6" d="M287,139.8c-6.8-4-31.1,8.1-31.1,8.1c5.3,2.8,7.5,4,10.3,6.5C275.2,156.6,293.8,143.8,287,139.8z"/>
	<path class="st6" d="M248.4,160.7c0,0,3.4,4.7,8.1,5.9c4.7,1.2,12.8,0.9,10.9-5.3c-1.9-6.2-11.5-9.6-11.5-9.6   C256.2,156.9,248.4,160.7,248.4,160.7z"/>
	<path class="st6" d="M252.4,142.3c-1.4-9.6-12.5-5.3-12.5-5.3l-7.8,10l13.7,0.9C245.9,147.9,253.4,148.8,252.4,142.3z"/>
	<path class="st6" d="M230.9,150.1l-11.5,5.6c0,0,7.2,5,15.3,5c2.8,0,16.8-1.2,17.4-10.3C242.8,151,230.9,150.1,230.9,150.1z"/>
	<path class="st6" d="M255.9,170.6c-3.4-2.5-10.3-8.1-10.3-8.1s-2.8,2.2-12.5,1.2c8.1,4,10.9,9,11.5,11.8   C249,178.4,259.3,173.1,255.9,170.6z"/>
	<path class="st6" d="M241.2,177.5c-0.6-7.8-14.6-14.3-14.6-14.3s0.6,4.7-9,8.4c7.5,3.7,10.3,10.6,10.3,10.6   S241.8,185.3,241.2,177.5z"/>
	<path class="st6" d="M223.8,187.1c5.3-5.9-15.9-18.4-15.9-18.4s-2.5,4.7-5,6.8C205.7,180.9,220.7,190.5,223.8,187.1z"/>
	<path class="st6" d="M209.5,165.6c0,0,2.5,2.5,5.3,3.1c2.5,0.5,8.7-2.5,8.1-6.8c-3.7-1.2-10-6.2-10-6.2L209.5,165.6z"/>
	<path class="st6" d="M214.1,153.8c0,0,20.9-7.8,20.9-18.7c-6.3-4.3-10.5,0.3-17.1,2.5C216.6,146.6,214.1,153.8,214.1,153.8z"/>
	<path class="st6" d="M107,42.9c-6.9-3.1-14.1-1.5-21.2-3.2C87.7,46.3,102.7,45.5,107,42.9z"/>
	<path class="st6" d="M112.8,42.8c-11.9,10.2-22.1,0.9-29.6,0.9c10.6,20.8,58.5-1.2,64.7,32.8c6.2,34,17.1,36.1,20.6,33.4   c-11.9-11.5,1.8-19.4,1.8-42.4c0-7.1-4-11.5-4-11.5s1.8,1.8,1.8-2.2c0-4-6.6-9.7-6.6-9.7s1.8-0.9,3.1-2.7c1.3-1.8-5.3-5.3-5.3-5.3   s1.3-0.4,1.3-2.7c0-2.2-4.4-3.5-4.4-3.5s0,0,1.8-2.7c1.8-2.7-5.7-2.2-5.7-2.2s8-4,6.6-6.6c-27.8,3.5-38.9-2.6-46.4-2.2   c-13.7,0.9-12.4,6.6-12.4,6.6c-12.4,0.9-20.3,8-19.9,19.9C80.1,42.8,85.4,25.6,112.8,42.8z M131.6,25.9c-2,1.5-6,4.2-8.5,4.2   c-4.3,0.1-4.6-2.3-7.8-4.2h-1.2C120.1,24.5,125.6,27.7,131.6,25.9z"/>
	<path class="st6" d="M259.9,39.7c-7.1,1.7-14.3,0.1-21.2,3.2C243.1,45.5,258.1,46.3,259.9,39.7z"/>
	<path class="st6" d="M177.3,110c3.5,2.7,13.8,0.9,20-33.1c6.2-34,54.7-12.4,65.3-33.1c-7.5,0-17.7,9.3-29.6-0.9   c27.4-17.2,32.7,0,32.7,0c0.4-11.9-7.5-19-19.9-19.9c0,0,1.3-5.7-12.4-6.6c-7.5-0.4-18.6,5.7-46.4,2.2c-1.3,2.7,6.6,6.6,6.6,6.6   s-7.5-0.4-5.7,2.2c1.8,2.7,1.8,2.7,1.8,2.7s-4.4,1.3-4.4,3.5c0,2.2,1.3,2.7,1.3,2.7s-6.6,3.5-5.3,5.3c1.3,1.8,3.1,2.7,3.1,2.7   s-6.6,5.7-6.6,9.7c0,4,1.8,2.2,1.8,2.2s-4,4.4-4,11.5C175.5,90.5,189.2,98.5,177.3,110z M231.7,25.9h-1.2c-3.2,1.9-3.5,4.3-7.8,4.2   c-2.5,0-6.5-2.8-8.5-4.2C220.2,27.7,225.6,24.5,231.7,25.9z"/>
	<path class="st6" d="M147.7,87.4c-6.6,19-25.2,51.3,3.1,92.4c4.9-7.1,10.2-11.9,22.1-7.1c11.9-4.9,17.2,0,22.1,7.1   c28.3-41.1,9.7-73.4,3.1-92.4c-5.7,32.7-25.2,27.4-25.2,27.4S153.4,120.1,147.7,87.4z M157.4,114.8c11.5,8,8.2,30.3,8.2,30.3   C160,141.9,157,120.3,157.4,114.8z M146.8,102.4c6.2,1.8,5.7,15,5.7,15C148.4,113.5,146.5,109.1,146.8,102.4z M144.2,115.3   c6.2,1.5,12.5,25.8,12.5,25.8C149.3,135.4,143.6,124.7,144.2,115.3z M141.1,131.6c4.7,0.9,14.7,19.2,14.7,19.2   C150.2,147.5,138.7,140.4,141.1,131.6z M146.7,163.1c6.2,1.5,11.2,6.2,11.2,6.2C150.5,171.4,149.5,168.7,146.7,163.1z M142.8,148.8   c10.2,1.3,19.1,19,19.1,19C154.8,159.9,144.6,160.8,142.8,148.8z M157.9,144c6.2,1.5,11.2,23.9,11.2,23.9   C161.7,162.2,157.3,153.4,157.9,144z M172.9,135.7c0,0,8.8,2.9,0,30.9C164,138.7,172.9,135.7,172.9,135.7z M176.7,167.8   c0,0,5-22.4,11.2-23.9C188.5,153.4,184.1,162.2,176.7,167.8z M187.9,169.3c0,0,5-4.7,11.2-6.2C196.3,168.7,195.3,171.4,187.9,169.3   z M190,150.8c0,0,10-18.3,14.7-19.2C207.1,140.4,195.6,147.5,190,150.8z M199,102.4c0.3,6.6-1.6,11.1-5.7,15   C193.2,117.5,192.8,104.2,199,102.4z M201.6,115.3c0.6,9.4-5.2,20.2-12.5,25.8C189.1,141,195.4,116.7,201.6,115.3z M202.9,148.8   c-1.8,11.9-11.9,11-19.1,19C183.8,167.8,192.8,150.2,202.9,148.8z M188.3,114.8c0.5,5.5-2.6,27.1-8.2,30.3   C180.1,145.2,176.9,122.8,188.3,114.8z M172.9,118.5c0,0,8.8,1.4,0,15C164,119.9,172.9,118.5,172.9,118.5z"/>
	<path class="st6" d="M210.7,230c1.7,2,3.7,3,4.7,3.5c0.1,0.1,0.3,0.1,0.4,0.1c0.4,0,0.7-0.2,0.9-0.6c0.2-0.5,0-1.1-0.5-1.3   c-1-0.5-3-1.5-4.5-3.5l-0.5-0.7l-0.7,0.4c0,0-3.1,1.5-6.1,1.5c-0.6,0-1,0.4-1,1c0,0.6,0.5,1,1,1C207.1,231.4,209.5,230.6,210.7,230   z"/>
	<path class="st6" d="M165.3,229.4c0.6-0.2,5.2-1.4,7.6-3.6c2.3,2.3,5.9,3.7,6.1,3.7c0.1,0,0.2,0.1,0.3,0.1c0.4,0,0.8-0.3,0.9-0.7   c0.2-0.5-0.1-1.1-0.6-1.3c0,0-4.2-1.6-6-3.9l-0.8-1.1l-0.8,1.1c-1.3,1.8-5.7,3.3-7.3,3.7c-0.5,0.1-0.9,0.7-0.7,1.2   C164.2,229.3,164.8,229.6,165.3,229.4z"/>
	<path class="st6" d="M129.9,233.6c0.1,0,0.3,0,0.4-0.1c1-0.5,3-1.5,4.7-3.5c1.2,0.5,3.7,1.4,6.2,1.4c0.6,0,1-0.4,1-1   c0-0.6-0.4-1-1-1c-3,0-6-1.5-6.1-1.5l-0.7-0.4l-0.5,0.7c-1.5,2-3.5,3-4.5,3.5c-0.5,0.2-0.7,0.8-0.5,1.3   C129.1,233.4,129.5,233.6,129.9,233.6z"/>
</g>
</svg>