<?xml version="1.0" encoding="UTF-8"?>
<svg xmlns="http://www.w3.org/2000/svg" xmlns:xlink="http://www.w3.org/1999/xlink" version="1.1" id="Layer_1" x="0px" y="0px" viewBox="0 0 301.5 294.3" style="enable-background:new 0 0 301.5 294.3;" xml:space="preserve"> <style type="text/css"> .st0{fill:#F0EEE6;} .st1{fill:#2B2E3D;} .st2{fill:#E5E1DA;} .st3{opacity:0.5;} .st4{fill:#2A2D3C;stroke:#FFFFFF;stroke-width:0.8392;stroke-miterlimit:10;} .st5{fill:#2A2D3C;} .st6{fill:#FFFFFF;stroke:#572131;stroke-width:0.8392;stroke-miterlimit:10;} .st7{fill:none;} .st8{fill:#572131;} .st9{fill:#2A2D3C;stroke:#2A2D3C;stroke-width:0.4313;stroke-miterlimit:10;} </style> <g> <g> <path class="st7" d="M140.7,82.9c-0.3,5.4,2.2,10.5,6.4,13.7C147.1,96.6,144.3,83.7,140.7,82.9z"/> <path class="st7" d="M164.4,59c-3.6,1-3.3,8.6-3.3,8.6C163.4,65.4,164.6,62.8,164.4,59z"/> <path class="st7" d="M166.6,85.7c-5.9,0.8-11,10.9-11,10.9C159.8,92,165.6,92.6,166.6,85.7z"/> <path class="st7" d="M165.9,66.4c-3.6,0.8-7.2,14.8-7.2,14.8C162.9,78,166.2,71.8,165.9,66.4z"/> <path class="st7" d="M149.3,78.1c0,0-5.1,1.7,0,17.8C154.4,79.8,149.3,78.1,149.3,78.1z"/> <path class="st7" d="M159.2,86.8c3.2-1.9,9.8-5.9,8.5-11C164.9,76.3,159.2,86.8,159.2,86.8z"/> <path class="st7" d="M158,82.9c-3.6,0.8-6.4,13.7-6.4,13.7C155.8,93.4,158.3,88.3,158,82.9z"/> <path class="st7" d="M164.4,93.9c-3.6,0.8-6.4,3.6-6.4,3.6C162.2,98.7,162.8,97.1,164.4,93.9z"/> <path class="st7" d="M158.3,66.1c-6.6,4.6-4.7,17.5-4.7,17.5C156.7,81.7,158.5,69.2,158.3,66.1z"/> <path class="st7" d="M52.4,138.9c0.7-1.3,2-3.4,4-4.8c-0.7-0.3-1.4-0.9-2.2-1.8c-1.4-1.6-2.1-3.9-2.8-6.2c-0.9-3-1.8-5.8-4.1-7.1 c-1.9-1-3.5-1.1-4.5-0.2c-0.1,0.1-0.2,0.2-0.3,0.3c0,0.1-0.1,0.2-0.2,0.3c-0.8,1.3-0.8,3.5,0,5.5 C44.1,129.2,47.4,133.9,52.4,138.9z"/> <path class="st7" d="M55,131.5c1.1,1.3,2.2,1.9,3,1.8c0,0,0,0,0,0c0.1,0,0.1,0,0.2,0c0.1,0,0.1-0.1,0.2-0.1c1-0.6,1.3-2.5,0.7-4.2 c-0.4-1.3-1.9-4.2-6.8-3.6c0.1,0.2,0.1,0.4,0.2,0.5C53.2,128,53.8,130.1,55,131.5z"/> <path class="st7" d="M27.8,124.5c2.7-0.5,6.8-1.2,13.2-5.8c-5.7-6.8-5.8-18.4-5.8-24.7c0-0.6,0-1.1,0-1.6 c-1.8,3.3-5.5,9.8-6.9,10.1c-0.6,0.1-1.3-0.3-4.4-2.2c-1.9-1.2-4.2-2.6-5.8-3.3c2.1,4.4,2.9,8.6,3.6,12.7c1,5.1,1.9,10,5.1,14.9 C27.3,124.6,27.5,124.6,27.8,124.5z"/> <path class="st7" d="M120.7,17.3c1.4,0,3.7-1.6,4.9-2.4c-3.5,1-6.6-0.8-10.1,0h0.7C118.1,16,118.2,17.4,120.7,17.3z"/> <path class="st7" d="M149.3,76.9c5.1-7.8,0-8.6,0-8.6S144.3,69,149.3,76.9z"/> <path class="st7" d="M243.6,131.5c1.2-1.4,1.9-3.5,2.5-5.7c0.1-0.2,0.1-0.4,0.2-0.5c-4.9-0.6-6.4,2.3-6.8,3.6 c-0.6,1.7-0.2,3.7,0.7,4.2c0.1,0,0.1,0.1,0.2,0.1c0.1,0,0.1,0,0.2,0c0,0,0,0,0,0C241.4,133.4,242.5,132.7,243.6,131.5z"/> <path class="st7" d="M256.3,124.9c0.8-2,0.8-4.2,0-5.5c-0.1-0.1-0.1-0.2-0.2-0.3c-0.1-0.1-0.2-0.2-0.3-0.3c-1-0.9-2.5-0.8-4.5,0.2 c-2.3,1.3-3.2,4.1-4.1,7.1c-0.7,2.2-1.4,4.6-2.8,6.2c-0.8,0.9-1.6,1.5-2.2,1.8c2,1.4,3.3,3.5,4,4.8 C251.2,133.9,254.6,129.2,256.3,124.9z"/> <path class="st7" d="M169.3,142.8c0-1.3-1-2.3-2.3-2.3c-1.3,0-2.3,1-2.3,2.3c0,1.3,1,2.3,2.3,2.3C168.3,145,169.3,144,169.3,142.8 z"/> <path class="st7" d="M197.8,120.9c0-0.8-0.7-1.5-1.5-1.5c-0.8,0-1.5,0.7-1.5,1.5c0,0.8,0.7,1.5,1.5,1.5 C197.2,122.4,197.8,121.7,197.8,120.9z"/> <path class="st7" d="M195.2,125.9c0.5,0.3,4.3,2.2,6,1c1.3-1,0.4-2.9,0.4-2.9s4.4,1.4,4.7-2.2c0.3-3.5-5.2-3.3-5.2-3.3 s2.3-3.1,0.5-5.1c-1-1.1-3-0.7-3.8-0.7c0,0,0,0-0.1,0c-0.1,0-0.2,0-0.2,0c0,0,0,0,0,0c-0.7-0.3-2.5-1.4-3.8-0.7 c-2.4,1.2-1.3,4.9-1.3,4.9s-5-2.2-6,1.2c-1,3.4,3.6,3.7,3.6,3.7s-1.5,1.5-0.6,2.8C190.3,126.5,195.2,125.8,195.2,125.9 C195.2,125.8,195.2,125.8,195.2,125.9z M193.3,120.9c0-1.7,1.4-3.1,3.1-3.1c1.7,0,3.1,1.4,3.1,3.1c0,1.7-1.4,3.1-3.1,3.1 C194.7,124,193.3,122.6,193.3,120.9z"/> <path class="st7" d="M133.9,142.8c0-1.3-1-2.3-2.3-2.3c-1.3,0-2.3,1-2.3,2.3c0,1.3,1,2.3,2.3,2.3C132.9,145,133.9,144,133.9,142.8 z"/> <path class="st7" d="M102.3,119.5c-0.8,0-1.5,0.7-1.5,1.5c0,0.8,0.7,1.5,1.5,1.5c0.8,0,1.5-0.7,1.5-1.5 C103.7,120.1,103.1,119.5,102.3,119.5z"/> <path class="st7" d="M149.3,114.6c0.7-0.1,1.3-0.7,1.3-1.4c0-0.7-0.6-1.3-1.3-1.4c-0.7,0.1-1.3,0.7-1.3,1.4 C148,113.9,148.6,114.5,149.3,114.6z"/> <path class="st7" d="M143.3,115.2c0,0-1.2,1.7-0.1,2.9c1.4,1.5,5.6,0.2,6.1,0.1c0,0,0,0,0,0c0,0,0,0,0,0c0,0,0,0,0,0c0,0,0,0,0,0 c0.4,0.1,4.6,1.5,6.1-0.1c1.1-1.2-0.1-2.9-0.1-2.9s4.6,0.6,4.2-3c-0.3-3.5-5.7-2.4-5.7-2.4s1.7-3.5-0.4-5.1c-1.4-1-4,0.1-4.2,0 c-0.2,0.1-2.8-1.1-4.2,0c-2.1,1.6-0.4,5.1-0.4,5.1s-5.4-1.2-5.7,2.4C138.8,115.8,143.3,115.2,143.3,115.2z M149.2,110.2 L149.2,110.2c0.1,0,0.1,0,0.1,0c0.1,0,0.1,0,0.1,0v0c1.6,0.1,2.8,1.4,2.8,3c0,1.6-1.2,2.8-2.8,3v0c-0.1,0-0.1,0-0.1,0 c-0.1,0-0.1,0-0.1,0v0c-1.6-0.1-2.8-1.4-2.8-3C146.4,111.6,147.6,110.4,149.2,110.2z"/> <path class="st7" d="M51.5,147.6l-4.1,4.2c-0.3,0.3-0.4,0.5,0,0.9c0.9,0.9,2.2,1.1,4.1-0.9c0.7-0.8,2.3-2.7,0.9-4.1 C51.9,147.2,51.7,147.4,51.5,147.6z"/> <path class="st7" d="M132,85.7c1,6.9,6.9,6.4,11,10.9C143.1,96.6,137.9,86.5,132,85.7z"/> <path class="st7" d="M140,81.2c0,0-3.6-14-7.2-14.8C132.5,71.8,135.8,78,140,81.2z"/> <path class="st7" d="M140.7,97.5c0,0-2.9-2.7-6.4-3.6C135.9,97.1,136.5,98.7,140.7,97.5z"/> <path class="st7" d="M106.4,116.8c0,0,1-3.7-1.3-4.9c-1.3-0.6-3.1,0.4-3.8,0.7c0,0,0,0,0,0c0,0-0.1,0-0.2,0c-0.1,0-0.1,0-0.1,0 c-0.8-0.1-2.9-0.4-3.8,0.7c-1.8,2,0.5,5.1,0.5,5.1s-5.5-0.2-5.2,3.3c0.3,3.5,4.7,2.2,4.7,2.2s-0.8,1.9,0.4,2.9 c1.6,1.2,5.5-0.7,6-1c0,0,0,0,0,0c0,0,4.8,0.7,6-1.2c0.8-1.4-0.6-2.8-0.6-2.8s4.6-0.3,3.6-3.7 C111.4,114.6,106.4,116.8,106.4,116.8z M102.3,124c-1.7,0-3.1-1.4-3.1-3.1c0-1.7,1.4-3.1,3.1-3.1c1.7,0,3.1,1.4,3.1,3.1 C105.4,122.6,104,124,102.3,124z"/> <path class="st7" d="M134.3,59c-0.2,3.8,0.9,6.4,3.3,8.6C137.6,67.6,137.9,60,134.3,59z"/> <path class="st7" d="M182.5,14.9h0.7c-3.5-0.8-6.6,1-10.1,0c1.1,0.9,3.4,2.4,4.9,2.4C180.5,17.4,180.6,16,182.5,14.9z"/> <path class="st7" d="M145.2,83.6c0,0,1.9-12.9-4.7-17.5C140.2,69.2,142,81.7,145.2,83.6z"/> <path class="st7" d="M139.5,86.8c0,0-5.8-10.5-8.5-11C129.7,80.9,136.3,84.9,139.5,86.8z"/> <polygon class="st7" points="106.7,176.7 107.1,173.7 104.7,175.6 "/> <polygon class="st7" points="132.2,188.3 134.4,188.7 133.7,185.7 "/> <path class="st7" d="M219.6,163.9c-0.7,0.1-0.7,0.4-0.6,0.6l0.8,5.8c0.1,0.5,0.2,0.6,0.7,0.6c1.3-0.2,2.2-1,1.8-3.8 C222.1,166.1,221.6,163.7,219.6,163.9z"/> <polygon class="st7" points="151.9,141.7 149.4,139.6 146.8,141.9 149.3,143.7 "/> <path class="st7" d="M189.3,172.2c-1.4,0.7-0.9,2.7-0.1,4.3c0.5,0.9,1.8,3.3,3.5,2.4c1.8-0.9,0.6-3.4,0.1-4.3 C192.1,173.1,190.8,171.5,189.3,172.2z"/> <path class="st7" d="M98.3,167.6c-0.6-0.2-0.7-0.1-0.8,0.2l-1.1,2.8c1.4,0.5,2.1,0.5,2.6-0.9C99.4,168.6,99.2,167.9,98.3,167.6z"/> <path class="st7" d="M258.1,120.6c0.3,1.4,0.1,3.1-0.6,4.8c-3.4,8.3-12.5,17.8-26.9,28.2c-7.3,5.3-11.9,5.3-17.2,5.3 c-4.1,0-8.7,0-15.5,2.4c-5.4,1.9-9.3,4.6-13.3,7.5c-7.6,5.4-15.5,11-35.2,12.4c0,0,0,0,0,0c0,0,0,0,0,0 c-19.7-1.3-27.6-6.9-35.2-12.4c-4-2.9-7.9-5.6-13.3-7.5c-6.8-2.4-11.4-2.4-15.5-2.4c-5.3,0-9.9,0-17.2-5.3 c-14.4-10.4-23.5-19.9-26.9-28.2c-0.7-1.7-0.9-3.4-0.6-4.8c-6,4-9.9,4.7-12.6,5.2c-2.7,0.5-3.6,0.6-4.1,4 c-0.6,3.9,3.8,9.3,6.4,12.5c0.3,0.4,0.6,0.7,0.8,1c9.5,11.9,20.5,21.6,30.9,27.2c8.6,4.7,13.1,5.2,18.7,5.9 c3.2,0.4,6.8,0.9,11.7,2.2c5.6,1.5,9.8,4.2,14.4,7c8.8,5.5,18.8,11.7,42.4,12.4c23.6-0.7,33.6-6.9,42.4-12.4 c4.5-2.8,8.8-5.5,14.4-7c4.9-1.3,8.5-1.8,11.7-2.2c5.6-0.7,10.1-1.3,18.7-5.9c10.5-5.6,21.5-15.3,30.9-27.2c0.2-0.3,0.5-0.6,0.8-1 c2.6-3.2,7-8.6,6.4-12.5c-0.5-3.4-1.3-3.5-4.1-4C268,125.2,264.1,124.5,258.1,120.6z M47.3,153.1l-2.6-2.6l0.2-0.2 c0.5,0.5,0.9,0.4,1.2,0.1l4-4.1c0.5-0.5,0.1-0.9-0.1-1.2l0.2-0.2l2.5,2.5c2.3,2.3,1.7,4.4,0.4,5.7 C51.6,154.7,49.4,155.1,47.3,153.1z M62.8,158.3l-0.2-0.2c0.7-1.5,0.2-2.2-1.1-3.1c-0.5-0.4-0.7-0.4-1,0l-1.5,2.2 c0.9,0.6,1.6,0.7,2.5-0.3l0.2,0.2l-2.2,3.2l-0.2-0.2c0.7-1.3,0.4-1.9-0.5-2.5l-1.6,2.3c-0.3,0.4-0.2,0.7,0.4,1.1 c0.9,0.7,2.1,1.1,3.7,0.1l0.3,0.2l-1.8,1.7l-5.6-3.9l0.2-0.2c0.6,0.3,0.9,0.5,1.3-0.1l3.2-4.6c0.4-0.6,0-0.9-0.4-1.3l0.2-0.2 l5.5,3.8L62.8,158.3z M71.2,160.6c-0.5-0.2-1-0.4-1.3,0.3l-2.3,5.1c-0.3,0.7,0.1,0.9,0.7,1.2l-0.1,0.3l-3.7-1.7l0.1-0.3 c0.6,0.2,1,0.3,1.3-0.3l2.3-5.1c0.3-0.7-0.2-0.9-0.6-1.2l0.1-0.3l3.7,1.7L71.2,160.6z M75.9,167.6c-0.7,0-1.3-0.6-1.3-1.3 c0-0.7,0.6-1.3,1.3-1.3c0.7,0,1.3,0.6,1.3,1.3C77.3,167,76.7,167.6,75.9,167.6z M90.5,169.7c-0.7,0-1,0-1.2,0.9l-0.2,1.5 c-0.6,0.3-2.2,0.4-3.2,0.2c-2.9-0.5-3.8-2.7-3.5-4.7c0.4-2.3,2.2-3.8,4.7-3.4c1,0.2,1.8,0.9,2.1,0.9c0.3,0.1,0.4-0.2,0.6-0.4 l0.3,0l-0.4,2.7l-0.3,0c-0.2-1.1-1-2.6-2.3-2.8c-1.7-0.3-2.4,1.4-2.7,3.4c-0.1,0.8-0.5,3.7,1.6,4c1,0.2,1.2-0.1,1.3-0.6l0.2-1.2 c0.1-0.7-0.2-0.8-1-1l0-0.3l3.9,0.6L90.5,169.7z M100.9,170.4c-0.5,1.3-1.7,1.2-2.4,1.2l1,3.9c0.1,0.3,0.2,0.3,0.4,0.4l-0.1,0.3 l-2.2-0.8l-0.9-4.2l-0.3-0.1l-0.8,2.1c-0.3,0.9-0.1,1,0.6,1.4l-0.1,0.3l-3.7-1.4l0.1-0.3c0.8,0.2,1,0.2,1.3-0.6l1.8-4.8 c0.4-0.9,0-1.1-0.6-1.4l0.1-0.3l3.5,1.3C99.3,167.6,101.6,168.5,100.9,170.4z M108.5,180.6l-0.1,0.3l-3.3-1.9l0.1-0.3 c0.7,0.3,0.8,0.4,1,0.1c0.2-0.3,0.3-1.2,0.3-1.6l-2.3-1.3c-0.7,0.6-1.1,0.9-1.2,1c-0.2,0.4,0.2,0.7,0.6,0.9l-0.1,0.3l-2-1.2 l0.1-0.3c0.6,0.2,0.9,0,1.7-0.6l5.4-4.2l0.3,0.2l-0.8,6.6C108.1,179.9,108,180.3,108.5,180.6z M119.4,181.1l-0.3-0.2 c0.7-1.7-0.3-2.4-1-2.8l-3,5.3c-0.5,0.9-0.3,1,0.5,1.5l-0.1,0.2l-3.6-2.1l0.1-0.3c0.8,0.4,1,0.5,1.5-0.4l3-5.3 c-0.7-0.4-1.8-0.9-2.9,0.6l-0.3-0.2l1.2-2l6,3.5L119.4,181.1z M127.7,182.1c-0.5-0.2-1.1-0.3-1.3,0.4l-1.8,5.3 c-0.2,0.7,0.2,0.9,0.8,1.1l-0.1,0.3l-3.8-1.3l0.1-0.3c0.6,0.1,1.1,0.3,1.3-0.4l1.8-5.3c0.3-0.7-0.3-0.9-0.7-1.1l0.1-0.3l3.8,1.3 L127.7,182.1z M137.4,192l-3.7-0.6l0-0.3c0.7,0.1,0.9,0.1,1-0.3c0.1-0.3-0.2-1.2-0.3-1.6l-2.6-0.4c-0.5,0.8-0.7,1.2-0.8,1.4 c-0.1,0.4,0.5,0.6,0.9,0.6l-0.1,0.3l-2.3-0.4l0.1-0.3c0.6,0,0.9-0.3,1.3-1.1l3.6-5.8l0.3,0.1l1.5,6.4c0.3,1.3,0.4,1.7,1,1.8 L137.4,192z M144.5,191.1c-0.7,0-1.3-0.6-1.3-1.3c0-0.7,0.6-1.3,1.3-1.3c0.7,0,1.3,0.6,1.3,1.3 C145.8,190.5,145.2,191.1,144.5,191.1z M153.6,193.2c-1.1,0.1-1.6-0.3-2-0.2c-0.2,0-0.3,0.2-0.3,0.4l-0.3,0l-0.2-2.9l0.3,0 c0.3,1.1,1.1,2.4,2.6,2.3c1.4-0.1,1.3-1.3,1.3-1.4c-0.1-0.8-0.6-1-1.4-1.3l-0.8-0.3c-2-0.8-2.1-1.8-2.2-2.3 c-0.1-0.7,0.2-2.3,2.4-2.5c0.9-0.1,1.5,0.3,1.8,0.2c0.3,0,0.3-0.2,0.4-0.4l0.3,0l0.2,2.5l-0.3,0c-0.3-0.8-1.1-2.1-2.4-2 c-0.6,0-1.2,0.4-1.1,1.2c0,0.6,0.3,0.9,1.3,1.3l1.8,0.7c0.4,0.2,1.3,0.8,1.4,2C156.3,191.6,155.7,193.1,153.6,193.2z M165.9,191.1 c-0.5,0.7-1.4,1.1-2.1,1.3c-0.5,0.1-1.6,0.2-2.4-0.3c-0.6-0.3-0.9-0.7-1.2-1.9l-0.7-3.8c-0.2-1-0.5-0.9-1.1-0.9l-0.1-0.3l3.8-0.7 l0.1,0.3c-0.7,0.2-1.1,0.3-0.9,1.3l0.7,3.8c0.1,0.6,0.4,2.2,2.1,1.9c2-0.4,1.7-2.1,1.6-2.9l-0.7-3.5c-0.1-0.7-0.3-1.1-1.3-0.9 l-0.1-0.3l2.5-0.5l0.1,0.3c-0.6,0.2-0.8,0.4-0.7,1.1l0.7,3.6C166.2,189.4,166.3,190.5,165.9,191.1z M176.2,188.3l-0.1-0.3 c0.6-0.3,0.9-0.5,0.7-1.2l-2-5.5l0,0l-0.3,7.6l-0.3,0.1l-5.1-5.4l0,0l1.9,5.1c0.3,0.8,0.6,0.9,1.5,0.7l0.1,0.3l-2.5,0.9l-0.1-0.3 c0.8-0.4,0.9-0.6,0.7-1.2l-1.9-5.2c-0.2-0.6-0.5-0.6-1.3-0.4l-0.1-0.3l2.8-1l4.1,4.3l0.3-5.9l2.7-1l0.1,0.3 c-0.6,0.3-0.9,0.4-0.6,1.4l1.8,4.8c0.3,0.9,0.6,0.8,1.3,0.6l0.1,0.3L176.2,188.3z M183.3,182c-0.7,0-1.3-0.6-1.3-1.3 c0-0.7,0.6-1.3,1.3-1.3c0.7,0,1.3,0.6,1.3,1.3C184.7,181.4,184.1,182,183.3,182z M195.4,180c-0.1,0.1-2.1,1.1-3.8-0.3 c-1.9,0.4-3.5-0.8-4.2-2.1c-1.2-2.4-0.3-4.6,1.7-5.7c2-1,4.4-0.5,5.5,1.8c0.9,1.8,0.5,3.7-0.8,4.9c0.9,0.7,1.8,0.7,2.4,0.4 c0.3-0.1,0.4-0.3,0.6-0.5l0.2,0.2C196.6,179.3,196.1,179.7,195.4,180z M203.5,173.5c-0.3,0.8-1.2,1.4-1.8,1.6 c-0.5,0.2-1.5,0.5-2.5,0.2c-0.6-0.2-1.1-0.5-1.5-1.6l-1.4-3.6c-0.4-0.9-0.7-0.8-1.3-0.6l-0.1-0.3l3.6-1.5l0.1,0.3 c-0.7,0.3-1,0.5-0.6,1.4l1.4,3.6c0.2,0.6,0.8,2.1,2.4,1.5c1.9-0.8,1.3-2.4,1-3.1l-1.3-3.3c-0.3-0.7-0.5-1-1.5-0.6l-0.1-0.3 l2.4-0.9l0.1,0.3c-0.6,0.3-0.8,0.5-0.5,1.3l1.4,3.4C203.5,171.8,203.8,172.8,203.5,173.5z M210,172.5c-2.4,0.3-4.3-1.1-4.6-3.5 c-0.3-2.5,1.3-4.3,3.5-4.6c2.2-0.3,4.3,1,4.6,3.5C213.8,170.2,212.4,172.1,210,172.5z M220.7,171.3l-3.6,0.5l0-0.3 c0.7-0.1,0.9-0.5,0.9-0.9l-0.8-5.7c-0.1-0.7-0.6-0.7-1.1-0.6l0-0.3l3.5-0.5c3.2-0.4,4.5,1.4,4.8,3.2 C224.6,168.9,223.6,170.8,220.7,171.3z M229.5,165.6c-0.7,0-1.3-0.6-1.3-1.3c0-0.7,0.6-1.3,1.3-1.3c0.7,0,1.3,0.6,1.3,1.3 C230.8,165,230.2,165.6,229.5,165.6z M239,164.2c-0.9,0.6-1.6,0.6-1.9,0.8c-0.2,0.1-0.1,0.3-0.1,0.5l-0.3,0.2l-1.6-2.4l0.3-0.2 c0.8,0.8,2.1,1.5,3.4,0.7c1.1-0.8,0.5-1.8,0.5-1.9c-0.4-0.6-1-0.6-1.9-0.4l-0.8,0.1c-2.2,0.3-2.7-0.5-3-0.9 c-0.4-0.6-1-2.1,0.8-3.3c0.8-0.5,1.4-0.5,1.7-0.7c0.2-0.1,0.2-0.3,0.1-0.5l0.3-0.2l1.4,2.1l-0.3,0.2c-0.6-0.6-2-1.3-3.1-0.5 c-0.5,0.3-0.8,1-0.4,1.6c0.4,0.5,0.7,0.6,1.8,0.5l1.9-0.3c0.4-0.1,1.5,0,2.3,1C240.6,161.4,240.8,163,239,164.2z M248.5,156.2 c-0.1,0.8-0.8,1.6-1.3,2.1c-0.4,0.3-1.3,0.9-2.3,0.8c-0.7,0-1.1-0.2-1.9-1.2l-2.3-3.1c-0.6-0.8-0.8-0.6-1.4-0.3l-0.2-0.2l3.1-2.4 l0.2,0.2c-0.6,0.5-0.9,0.7-0.2,1.5l2.3,3.1c0.4,0.5,1.4,1.8,2.7,0.8c1.6-1.2,0.6-2.7,0.1-3.3l-2.1-2.8c-0.4-0.6-0.8-0.8-1.6-0.2 l-0.2-0.2l2-1.5l0.2,0.2c-0.4,0.5-0.6,0.7-0.1,1.3l2.2,2.9C248.1,154.6,248.6,155.5,248.5,156.2z M257,148.3l-0.2-0.2 c0.4-0.6,0.6-0.8,0-1.3l-4.4-3.9l0,0l3.3,6.8l-0.2,0.2l-7-2.3l0,0l4,3.6c0.6,0.5,1,0.6,1.6-0.1l0.2,0.2l-1.8,2l-0.2-0.2 c0.5-0.7,0.5-1,0-1.4l-4.1-3.6c-0.4-0.4-0.7-0.3-1.3,0.2l-0.2-0.2l1.9-2.2l5.6,1.9l-2.6-5.3l1.9-2.2l0.2,0.2 c-0.4,0.5-0.6,0.8,0.1,1.5l3.8,3.4c0.7,0.6,0.9,0.4,1.5-0.1l0.2,0.2L257,148.3z"/> <path class="st7" d="M270.3,102.6c-1.4-0.3-5.1-6.9-6.9-10.1c0,0.5,0,1,0,1.6c0,6.3-0.1,17.9-5.8,24.7c6.5,4.5,10.5,5.3,13.2,5.8 c0.3,0.1,0.6,0.1,0.8,0.2c3.2-4.9,4.2-9.8,5.1-14.9c0.8-4.1,1.6-8.3,3.6-12.7c-1.6,0.7-4,2.1-5.8,3.3 C271.6,102.2,270.8,102.7,270.3,102.6z"/> <path class="st7" d="M208.9,164.7c-1.6,0.2-1.8,2.3-1.5,4c0.1,1,0.6,3.7,2.5,3.4c2-0.3,1.7-3,1.5-4 C211.3,166.4,210.6,164.5,208.9,164.7z"/> <path class="st5" d="M135.4,142.8c0-2.1-1.7-3.8-3.8-3.8c-2.1,0-3.8,1.7-3.8,3.8c0,2.1,1.7,3.8,3.8,3.8 C133.7,146.6,135.4,144.9,135.4,142.8z M129.3,142.8c0-1.3,1-2.3,2.3-2.3c1.3,0,2.3,1,2.3,2.3c0,1.3-1,2.3-2.3,2.3 C130.3,145,129.3,144,129.3,142.8z"/> <path class="st5" d="M124,144.7c0-1.2-0.9-2.1-2.1-2.1c-1.2,0-2.1,0.9-2.1,2.1c0,1.2,0.9,2.1,2.1,2.1 C123.1,146.8,124,145.9,124,144.7z"/> <path class="st5" d="M142.4,142.2c0-1.2-0.9-2.1-2.1-2.1c-1.2,0-2.1,0.9-2.1,2.1c0,1.2,0.9,2.1,2.1,2.1 C141.5,144.3,142.4,143.3,142.4,142.2z"/> <polygon class="st5" points="115.8,147 110.6,147 111.9,150.5 "/> <path class="st5" d="M52.7,147.5l-2.5-2.5l-0.2,0.2c0.3,0.3,0.6,0.7,0.1,1.2l-4,4.1c-0.3,0.3-0.7,0.4-1.2-0.1l-0.2,0.2l2.6,2.6 c2.2,2,4.3,1.6,5.8,0C54.3,151.9,55,149.7,52.7,147.5z M51.6,151.8c-1.9,2-3.2,1.8-4.1,0.9c-0.4-0.4-0.3-0.6,0-0.9l4.1-4.2 c0.2-0.2,0.4-0.4,0.9,0.1C53.8,149.1,52.3,151.1,51.6,151.8z"/> <path class="st5" d="M58.5,152.8c0.4,0.3,0.8,0.6,0.4,1.3l-3.2,4.6c-0.4,0.6-0.7,0.4-1.3,0.1l-0.2,0.2l5.6,3.9l1.8-1.7l-0.3-0.2 c-1.6,1-2.7,0.6-3.7-0.1c-0.6-0.4-0.7-0.7-0.4-1.1l1.6-2.3c0.9,0.7,1.2,1.3,0.5,2.5l0.2,0.2l2.2-3.2l-0.2-0.2 c-1,1.1-1.6,1-2.5,0.3l1.5-2.2c0.3-0.4,0.5-0.3,1,0c1.3,0.9,1.8,1.6,1.1,3.1l0.2,0.2l1.3-1.9l-5.5-3.8L58.5,152.8z"/> <path class="st5" d="M67.5,159c0.5,0.3,1,0.5,0.6,1.2l-2.3,5.1c-0.3,0.7-0.7,0.5-1.3,0.3l-0.1,0.3l3.7,1.7l0.1-0.3 c-0.6-0.3-1-0.5-0.7-1.2l2.3-5.1c0.3-0.7,0.8-0.5,1.3-0.3l0.1-0.3l-3.7-1.7L67.5,159z"/> <path class="st5" d="M86.6,169c0.8,0.2,1.1,0.3,1,1l-0.2,1.2c-0.1,0.5-0.3,0.8-1.3,0.6c-2.2-0.4-1.8-3.2-1.6-4 c0.3-2,1.1-3.6,2.7-3.4c1.3,0.2,2,1.7,2.3,2.8l0.3,0l0.4-2.7l-0.3,0c-0.2,0.3-0.3,0.5-0.6,0.4c-0.3,0-1.1-0.8-2.1-0.9 c-2.5-0.4-4.3,1.2-4.7,3.4c-0.3,2,0.6,4.2,3.5,4.7c1,0.2,2.6,0.1,3.2-0.2l0.2-1.5c0.2-0.9,0.4-0.9,1.2-0.9l0-0.3l-3.9-0.6 L86.6,169z"/> <path class="st5" d="M98.6,167.3l-3.5-1.3l-0.1,0.3c0.6,0.3,0.9,0.4,0.6,1.4l-1.8,4.8c-0.3,0.9-0.6,0.8-1.3,0.6l-0.1,0.3l3.7,1.4 l0.1-0.3c-0.7-0.4-0.9-0.5-0.6-1.4l0.8-2.1l0.3,0.1l0.9,4.2l2.2,0.8l0.1-0.3c-0.1-0.1-0.3-0.1-0.4-0.4l-1-3.9 c0.7,0,1.9,0.1,2.4-1.2C101.6,168.5,99.3,167.6,98.6,167.3z M99,169.7c-0.5,1.4-1.2,1.4-2.6,0.9l1.1-2.8c0.2-0.3,0.2-0.4,0.8-0.2 C99.2,167.9,99.4,168.6,99,169.7z"/> <path class="st5" d="M109,172l-0.3-0.2l-5.4,4.2c-0.7,0.6-1.1,0.8-1.7,0.6l-0.1,0.3l2,1.2l0.1-0.3c-0.3-0.2-0.8-0.5-0.6-0.9 c0.1-0.2,0.5-0.5,1.2-1l2.3,1.3c0,0.4-0.1,1.3-0.3,1.6c-0.2,0.3-0.4,0.2-1-0.1l-0.1,0.3l3.3,1.9l0.1-0.3c-0.5-0.3-0.5-0.7-0.3-2 L109,172z M106.7,176.7l-2-1.1l2.3-1.9L106.7,176.7z"/> <path class="st5" d="M113.3,177.6l0.3,0.2c1.1-1.5,2.2-1,2.9-0.6l-3,5.3c-0.5,0.8-0.7,0.7-1.5,0.4l-0.1,0.3l3.6,2.1l0.1-0.2 c-0.7-0.5-0.9-0.6-0.5-1.5l3-5.3c0.7,0.4,1.7,1.1,1,2.8l0.3,0.2l1.1-2l-6-3.5L113.3,177.6z"/> <path class="st5" d="M123.9,180.7c0.5,0.2,1,0.4,0.7,1.1l-1.8,5.3c-0.2,0.7-0.7,0.6-1.3,0.4l-0.1,0.3l3.8,1.3l0.1-0.3 c-0.6-0.3-1-0.4-0.8-1.1l1.8-5.3c0.3-0.7,0.8-0.6,1.3-0.4l0.1-0.3l-3.8-1.3L123.9,180.7z"/> <path class="st5" d="M136.5,189.9l-1.5-6.4l-0.3-0.1l-3.6,5.8c-0.5,0.8-0.7,1.2-1.3,1.1l-0.1,0.3l2.3,0.4l0.1-0.3 c-0.4-0.1-0.9-0.2-0.9-0.6c0-0.2,0.3-0.6,0.8-1.4l2.6,0.4c0.1,0.4,0.3,1.3,0.3,1.6c-0.1,0.4-0.3,0.4-1,0.3l0,0.3l3.7,0.6l0-0.3 C136.9,191.6,136.8,191.2,136.5,189.9z M132.2,188.3l1.5-2.6l0.7,3L132.2,188.3z"/> <path class="st5" d="M154.8,188.6l-1.8-0.7c-1-0.4-1.2-0.6-1.3-1.3c-0.1-0.7,0.5-1.1,1.1-1.2c1.4-0.1,2.2,1.2,2.4,2l0.3,0 l-0.2-2.5l-0.3,0c0,0.2-0.1,0.4-0.4,0.4c-0.3,0-0.9-0.3-1.8-0.2c-2.2,0.2-2.4,1.8-2.4,2.5c0,0.5,0.1,1.5,2.2,2.3l0.8,0.3 c0.8,0.3,1.3,0.5,1.4,1.3c0,0.1,0,1.3-1.3,1.4c-1.5,0.1-2.2-1.1-2.6-2.3l-0.3,0l0.2,2.9l0.3,0c0-0.2,0.1-0.4,0.3-0.4 c0.4,0,0.9,0.3,2,0.2c2.1-0.2,2.8-1.6,2.7-2.6C156.1,189.3,155.2,188.8,154.8,188.6z"/> <path class="st5" d="M237.8,159.5l-1.9,0.3c-1.1,0.1-1.4,0.1-1.8-0.5c-0.4-0.6-0.1-1.3,0.4-1.6c1.1-0.8,2.5-0.1,3.1,0.5l0.3-0.2 l-1.4-2.1l-0.3,0.2c0.1,0.2,0.1,0.4-0.1,0.5c-0.3,0.2-0.9,0.2-1.7,0.7c-1.8,1.2-1.2,2.7-0.8,3.3c0.3,0.4,0.9,1.3,3,0.9l0.8-0.1 c0.8-0.1,1.4-0.2,1.9,0.4c0.1,0.1,0.7,1.1-0.5,1.9c-1.2,0.8-2.5,0.1-3.4-0.7l-0.3,0.2l1.6,2.4l0.3-0.2c-0.1-0.2-0.1-0.4,0.1-0.5 c0.3-0.2,0.9-0.2,1.9-0.8c1.8-1.2,1.6-2.8,1-3.6C239.3,159.5,238.2,159.5,237.8,159.5z"/> <path class="st5" d="M165.4,185.1c-0.1-0.8,0.1-0.9,0.7-1.1l-0.1-0.3l-2.5,0.5l0.1,0.3c1-0.1,1.2,0.2,1.3,0.9l0.7,3.5 c0.1,0.7,0.4,2.5-1.6,2.9c-1.6,0.3-1.9-1.3-2.1-1.9l-0.7-3.8c-0.2-1,0.2-1.1,0.9-1.3l-0.1-0.3l-3.8,0.7l0.1,0.3 c0.6-0.1,0.9-0.1,1.1,0.9l0.7,3.8c0.2,1.2,0.6,1.6,1.2,1.9c0.9,0.5,1.9,0.4,2.4,0.3c0.7-0.1,1.6-0.5,2.1-1.3 c0.4-0.6,0.3-1.6,0.2-2.3L165.4,185.1z"/> <path class="st5" d="M245.5,151.1c-0.5-0.6-0.3-0.9,0.1-1.3l-0.2-0.2l-2,1.5l0.2,0.2c0.8-0.6,1.2-0.3,1.6,0.2l2.1,2.8 c0.5,0.6,1.5,2-0.1,3.3c-1.3,1-2.3-0.3-2.7-0.8l-2.3-3.1c-0.6-0.8-0.3-1,0.2-1.5l-0.2-0.2l-3.1,2.4l0.2,0.2 c0.6-0.3,0.8-0.5,1.4,0.3l2.3,3.1c0.8,1,1.2,1.1,1.9,1.2c1,0.1,1.9-0.5,2.3-0.8c0.6-0.4,1.2-1.2,1.3-2.1c0.1-0.7-0.4-1.6-0.8-2.2 L245.5,151.1z"/> <path class="st5" d="M178.4,186l-1.8-4.8c-0.3-0.9,0-1.1,0.6-1.4l-0.1-0.3l-2.7,1l-0.3,5.9l-4.1-4.3l-2.8,1l0.1,0.3 c0.8-0.2,1-0.2,1.3,0.4l1.9,5.2c0.2,0.6,0.2,0.8-0.7,1.2l0.1,0.3l2.5-0.9l-0.1-0.3c-0.9,0.3-1.2,0.1-1.5-0.7l-1.9-5.1l0,0l5.1,5.4 l0.3-0.1l0.3-7.6l0,0l2,5.5c0.3,0.7,0,0.9-0.7,1.2l0.1,0.3l3.6-1.3l-0.1-0.3C178.9,186.8,178.7,186.9,178.4,186z"/> <path class="st5" d="M196.3,178.9c-0.7,0.3-1.6,0.4-2.4-0.4c1.4-1.2,1.7-3.1,0.8-4.9c-1.1-2.2-3.5-2.8-5.5-1.8 c-2,1-2.9,3.3-1.7,5.7c0.7,1.3,2.3,2.5,4.2,2.1c1.7,1.4,3.7,0.4,3.8,0.3c0.7-0.3,1.1-0.7,1.7-1.3l-0.2-0.2 C196.8,178.6,196.6,178.8,196.3,178.9z M192.7,178.9c-1.8,0.9-3.1-1.5-3.5-2.4c-0.8-1.5-1.3-3.5,0.1-4.3c1.4-0.7,2.8,0.9,3.5,2.4 C193.3,175.5,194.5,178,192.7,178.9z"/> <path class="st5" d="M201.9,167.8c-0.3-0.7-0.1-0.9,0.5-1.3l-0.1-0.3l-2.4,0.9l0.1,0.3c0.9-0.3,1.2,0,1.5,0.6l1.3,3.3 c0.3,0.7,0.9,2.3-1,3.1c-1.5,0.6-2.1-0.9-2.4-1.5l-1.4-3.6c-0.4-0.9-0.1-1.1,0.6-1.4l-0.1-0.3l-3.6,1.5l0.1,0.3 c0.6-0.2,0.9-0.3,1.3,0.6l1.4,3.6c0.5,1.2,0.9,1.4,1.5,1.6c0.9,0.3,2,0,2.5-0.2c0.6-0.3,1.5-0.8,1.8-1.6c0.3-0.7,0-1.7-0.2-2.3 L201.9,167.8z"/> <path class="st5" d="M208.9,164.3c-2.2,0.3-3.8,2.1-3.5,4.6c0.3,2.4,2.3,3.8,4.6,3.5c2.4-0.3,3.8-2.2,3.5-4.6 C213.2,165.3,211.1,164,208.9,164.3z M209.9,172.1c-2,0.3-2.4-2.4-2.5-3.4c-0.2-1.7-0.1-3.8,1.5-4c1.6-0.2,2.3,1.7,2.5,3.4 C211.6,169.1,211.9,171.8,209.9,172.1z"/> <path class="st5" d="M219.5,163.5L216,164l0,0.3c0.5,0,1-0.1,1.1,0.6l0.8,5.7c0.1,0.4-0.1,0.8-0.9,0.9l0,0.3l3.6-0.5 c2.9-0.5,3.9-2.4,3.6-4.6C224,165,222.7,163.1,219.5,163.5z M220.5,170.9c-0.5,0.1-0.7-0.1-0.7-0.6l-0.8-5.8 c0-0.3-0.1-0.5,0.6-0.6c2-0.3,2.6,2.1,2.7,3.2C222.7,169.9,221.8,170.7,220.5,170.9z"/> <path class="st5" d="M257.9,145.3l-3.8-3.4c-0.7-0.7-0.5-1-0.1-1.5l-0.2-0.2l-1.9,2.2l2.6,5.3l-5.6-1.9l-1.9,2.2l0.2,0.2 c0.6-0.6,0.9-0.6,1.3-0.2l4.1,3.6c0.5,0.4,0.5,0.7,0,1.4l0.2,0.2l1.8-2l-0.2-0.2c-0.7,0.7-1,0.7-1.6,0.1l-4-3.6l0,0l7,2.3l0.2-0.2 l-3.3-6.8l0,0l4.4,3.9c0.6,0.5,0.4,0.8,0,1.3l0.2,0.2l2.5-2.9l-0.2-0.2C258.8,145.8,258.6,145.9,257.9,145.3z"/> <path class="st5" d="M133.9,107.7c-2.6,1.3-1.6,3.5-1.6,3.5s-3.9,1-3.5,5.2c0.3,4.2,4.8,2.9,4.8,2.9s0.4,3,3.5,3.9 c3.7,1.1,6.2-2.3,12.2-3.4c6.1,1.1,8.5,4.4,12.2,3.4c3.1-0.9,3.5-3.9,3.5-3.9s4.5,1.3,4.8-2.9c0.3-4.2-3.5-5.2-3.5-5.2 s1-2.3-1.6-3.5c-2.6-1.3-5.8-0.3-5.8-0.3s0.6-3.9-2.6-5.8c-3.1-1.9-6.9,0.5-7.1,0.6c-0.2-0.1-4-2.5-7.1-0.6 c-3.2,1.9-2.6,5.8-2.6,5.8S136.4,106.4,133.9,107.7z M139.1,112.2c0.3-3.5,5.7-2.4,5.7-2.4s-1.7-3.5,0.4-5.1c1.4-1,4,0.1,4.2,0 c0.2,0.1,2.8-1.1,4.2,0c2.1,1.6,0.4,5.1,0.4,5.1s5.4-1.2,5.7,2.4c0.3,3.5-4.2,3-4.2,3s1.2,1.7,0.1,2.9c-1.4,1.5-5.6,0.2-6.1,0.1 c0,0,0,0,0,0c0,0,0,0,0,0c0,0,0,0,0,0c0,0,0,0,0,0c-0.4,0.1-4.6,1.5-6.1-0.1c-1.1-1.2,0.1-2.9,0.1-2.9S138.8,115.8,139.1,112.2z"/> <path class="st5" d="M149.2,116.2L149.2,116.2c0.1,0,0.1,0,0.1,0c0.1,0,0.1,0,0.1,0v0c1.6-0.1,2.8-1.4,2.8-3c0-1.6-1.2-2.8-2.8-3 v0c-0.1,0-0.1,0-0.1,0c-0.1,0-0.1,0-0.1,0v0c-1.6,0.1-2.8,1.4-2.8,3C146.4,114.8,147.6,116,149.2,116.2z M149.3,111.8 c0.7,0.1,1.3,0.7,1.3,1.4c0,0.7-0.6,1.3-1.3,1.4c-0.7-0.1-1.3-0.7-1.3-1.4C148,112.5,148.6,111.9,149.3,111.8z"/> <path class="st5" d="M116.5,128.4c2.9-1.5,2.7-4.5,2.7-4.5s4.7,0.4,4.2-3.8c-0.5-4.2-4.5-4.4-4.5-4.4s0.5-2.4-2.3-3.2 c-2.8-0.8-5.8,0.8-5.8,0.8s-0.1-3.9-3.7-5.2c-3.1-1.1-6,1.3-6.7,1.9c-0.9-0.3-4.4-1.4-6.9,0.7c-2.8,2.5-1.5,6.2-1.5,6.2 s-3.3-0.4-5.7,1.3c-2.3,1.7-1,3.8-1,3.8s-3.6,1.6-2.6,5.7c1,4.1,5.3,2,5.3,2s1,2.9,4.2,3.2c3.8,0.4,5.7-3.4,11.5-5.5c0,0,0,0,0,0 C110,127.3,113.1,130.1,116.5,128.4z M108.8,121.8c0,0,1.5,1.5,0.6,2.8c-1.2,1.9-6,1.2-6,1.2c0,0,0,0,0,0c-0.5,0.3-4.3,2.2-6,1 c-1.3-1-0.4-2.9-0.4-2.9s-4.4,1.4-4.7-2.2c-0.3-3.5,5.2-3.3,5.2-3.3s-2.3-3.1-0.5-5.1c1-1.1,3-0.7,3.8-0.7c0,0,0,0,0.1,0 c0.1,0,0.2,0,0.2,0c0,0,0,0,0,0c0.7-0.3,2.6-1.4,3.8-0.7c2.4,1.2,1.3,4.9,1.3,4.9s5-2.2,6,1.2 C113.4,121.5,108.8,121.8,108.8,121.8z"/> <path class="st5" d="M102.3,117.8c-1.7,0-3.1,1.4-3.1,3.1c0,1.7,1.4,3.1,3.1,3.1c1.7,0,3.1-1.4,3.1-3.1 C105.4,119.2,104,117.8,102.3,117.8z M102.3,122.4c-0.8,0-1.5-0.7-1.5-1.5c0-0.8,0.7-1.5,1.5-1.5c0.8,0,1.5,0.7,1.5,1.5 C103.7,121.7,103.1,122.4,102.3,122.4z"/> <path class="st8" d="M282.1,95.8c-0.1-0.2-0.3-0.3-0.5-0.3c-1.5,0.1-4.2,1.7-7.6,3.8c-1.3,0.8-3,1.8-3.5,2 c-1.1-0.8-5.2-7.8-7-11.3c-0.1-0.2-0.3-0.3-0.6-0.3c-0.2,0-0.4,0.2-0.5,0.4c-0.2,0.5-0.2,1.6-0.2,3.9c0,6.1-0.1,17.4-5.4,23.9 c0,0,0,0,0,0c-0.8-0.7-2.6-1.7-5.8,0.1c-2.3,1.2-3.3,3.6-4.1,6.1c0,0-0.1,0-0.1,0c-6-0.7-7.8,3.2-8.2,4.4 c-0.8,2.3-0.2,4.8,1.3,5.7c0.2,0.1,0.4,0.2,0.7,0.3c2.7,1.1,4.4,4.1,5.1,5.4c-4.2,4.1-9.3,8.4-15.5,12.8c-7,5-11.2,5-16.5,5 c-4.2,0-8.9,0-15.9,2.5c-5.6,2-9.5,4.7-13.6,7.7c-7.5,5.3-15.2,10.8-34.5,12.1c-19.3-1.3-27-6.8-34.5-12.1 c-4.1-2.9-8-5.7-13.6-7.7c-7-2.5-11.7-2.5-15.9-2.5c-5.3,0-9.5,0-16.5-5c-6.2-4.5-11.4-8.7-15.5-12.8c0.7-1.3,2.4-4.3,5.1-5.4 c0.3-0.1,0.5-0.2,0.7-0.3c1.5-0.9,2.1-3.4,1.3-5.7c-0.4-1.2-2.2-5.2-8.2-4.4c0,0-0.1,0-0.1,0c-0.8-2.5-1.9-4.9-4.1-6.1 c-3.2-1.7-5-0.8-5.8-0.1c0,0,0,0,0,0c-5.4-6.5-5.4-17.8-5.4-23.9c0-2.3,0-3.4-0.2-3.9l-0.5-1.3l-0.6,1.2c-1.8,3.5-6,10.6-7,11.3 c-0.5-0.2-2.2-1.2-3.5-2c-3.4-2.1-6.1-3.8-7.6-3.8L16,95.5l0.5,0.9c2.5,4.6,3.3,9.2,4.1,13.6c0.9,4.9,1.9,10,5.1,15 c-1.6,0.5-2.5,1.5-3,4.6c-0.6,4.4,3.7,9.8,6.7,13.4c0.3,0.4,0.6,0.7,0.8,1c9.6,12,20.7,21.8,31.3,27.5c8.8,4.8,13.6,5.4,19.1,6.1 c3.1,0.4,6.7,0.8,11.5,2.1c5.4,1.5,9.6,4.1,14,6.8c8.9,5.6,19.1,11.9,43.1,12.5c0,0,0,0,0,0c0,0,0,0,0,0c0,0,0,0,0,0c0,0,0,0,0,0 c0,0,0,0,0,0c0,0,0,0,0,0c24-0.7,34.1-7,43.1-12.5c4.4-2.8,8.6-5.4,14-6.8c4.8-1.3,8.4-1.7,11.5-2.1c5.5-0.7,10.3-1.3,19.1-6.1 c10.6-5.7,21.7-15.5,31.3-27.5c0.2-0.3,0.5-0.6,0.8-1c2.9-3.6,7.3-9,6.7-13.4c-0.5-3.1-1.4-4.1-3-4.6c3.2-5,4.1-10.1,5.1-15 c0.8-4.4,1.7-8.9,4.1-13.6C282.2,96.2,282.2,96,282.1,95.8z M240.6,133.2C240.6,133.2,240.6,133.2,240.6,133.2c-0.1,0-0.1,0-0.2,0 c-0.1,0-0.1-0.1-0.2-0.1c-1-0.6-1.3-2.5-0.7-4.2c0.4-1.3,1.9-4.2,6.8-3.6c-0.1,0.2-0.1,0.4-0.2,0.5c-0.7,2.2-1.3,4.3-2.5,5.7 C242.5,132.7,241.4,133.4,240.6,133.2z M242.3,134.1c0.7-0.3,1.4-0.9,2.2-1.8c1.4-1.6,2.1-3.9,2.8-6.2c0.9-3,1.8-5.8,4.1-7.1 c1.9-1,3.5-1.1,4.5-0.2c0.1,0.1,0.2,0.2,0.3,0.3c0,0.1,0.1,0.2,0.2,0.3c0.8,1.3,0.8,3.5,0,5.5c-1.8,4.3-5.1,9-10,14 C245.6,137.6,244.3,135.5,242.3,134.1z M59.2,128.8c0.6,1.7,0.2,3.7-0.7,4.2c-0.1,0-0.1,0.1-0.2,0.1c-0.1,0-0.1,0-0.2,0 c0,0,0,0,0,0c-0.8,0.1-1.9-0.5-3-1.8c-1.2-1.4-1.9-3.5-2.5-5.7c-0.1-0.2-0.1-0.4-0.2-0.5C57.2,124.6,58.7,127.5,59.2,128.8z M42.3,119.4c0.1-0.1,0.2-0.2,0.2-0.3c0.1-0.1,0.2-0.2,0.3-0.3c1-0.9,2.5-0.8,4.5,0.2c2.3,1.2,3.2,4.1,4.1,7.1 c0.7,2.2,1.4,4.6,2.8,6.2c0.8,0.9,1.6,1.5,2.2,1.8c-2,1.4-3.3,3.5-4,4.8c-4.9-5-8.3-9.7-10-14C41.5,122.9,41.5,120.7,42.3,119.4z M21.9,109.7c-0.8-4.1-1.6-8.3-3.6-12.7c1.6,0.7,4,2.1,5.8,3.3c3,1.9,3.8,2.3,4.4,2.2c1.4-0.3,5.1-6.9,6.9-10.1c0,0.5,0,1,0,1.6 c0,6.3,0.1,17.9,5.8,24.7c-6.5,4.5-10.5,5.3-13.2,5.8c-0.3,0.1-0.6,0.1-0.8,0.2C23.8,119.7,22.8,114.9,21.9,109.7z M274.7,129.7 c0.6,3.9-3.8,9.3-6.4,12.5c-0.3,0.4-0.6,0.7-0.8,1c-9.5,11.9-20.5,21.5-30.9,27.2c-8.6,4.7-13.1,5.2-18.7,5.9 c-3.2,0.4-6.8,0.9-11.7,2.2c-5.6,1.5-9.8,4.2-14.4,7c-8.8,5.5-18.8,11.7-42.4,12.4c-23.6-0.7-33.6-6.9-42.4-12.4 c-4.5-2.8-8.8-5.5-14.4-7c-4.9-1.3-8.5-1.8-11.7-2.2c-5.6-0.7-10.1-1.3-18.7-5.9c-10.5-5.6-21.5-15.3-30.9-27.2 c-0.2-0.3-0.5-0.6-0.8-1c-2.6-3.2-7-8.6-6.4-12.5c0.5-3.4,1.3-3.5,4.1-4c2.7-0.5,6.6-1.2,12.6-5.2c-0.3,1.4-0.1,3.1,0.6,4.8 c3.4,8.3,12.4,17.8,26.9,28.2c7.3,5.3,11.9,5.3,17.2,5.3c4.1,0,8.7,0,15.5,2.4c5.4,1.9,9.3,4.6,13.3,7.5 c7.6,5.4,15.5,11,35.2,12.4c0,0,0,0,0,0c0,0,0,0,0,0c19.7-1.3,27.6-6.9,35.2-12.4c4-2.9,7.9-5.6,13.3-7.5 c6.8-2.4,11.4-2.4,15.5-2.4c5.3,0,9.9,0,17.2-5.3c14.5-10.4,23.5-19.9,26.9-28.2c0.7-1.7,0.9-3.4,0.6-4.8c6,4,9.9,4.7,12.6,5.2 C273.3,126.2,274.2,126.3,274.7,129.7z M276.8,109.7c-1,5.1-1.9,10-5.1,14.9c-0.3-0.1-0.5-0.1-0.8-0.2c-2.7-0.5-6.8-1.2-13.2-5.8 c5.7-6.8,5.8-18.4,5.8-24.7c0-0.6,0-1.1,0-1.6c1.8,3.3,5.5,9.8,6.9,10.1c0.6,0.1,1.4-0.3,4.4-2.2c1.9-1.2,4.2-2.6,5.8-3.3 C278.4,101.4,277.6,105.6,276.8,109.7z"/> <path class="st8" d="M190.6,144.7c0.2,0,0.4-0.1,0.5-0.3c0.2-0.3,0.1-0.7-0.2-0.8c-0.2-0.1-4.1-2.6-11.2-4.9 c-6.5-2.1-17.1-4.6-30.4-3.9c-25.4-1.3-41.4,8.7-41.6,8.8c-0.3,0.2-0.4,0.6-0.2,0.8c0.1,0.2,0.3,0.3,0.5,0.3c0.1,0,0.2,0,0.3-0.1 c0.2-0.1,16-9.9,40.9-8.6c0,0,0,0,0,0c0,0,0,0,0,0c25-1.3,40.8,8.5,40.9,8.6C190.4,144.7,190.5,144.7,190.6,144.7z"/> <path class="st8" d="M191.5,138.1l1.9-6.8c0.1-0.2,0-0.5-0.2-0.6c-0.2-0.2-0.5-0.2-0.7-0.1c-0.1,0-6.6,3.6-12.5,1.8 c-2.9-0.9-5.3-2.9-7-6.1c-0.1-0.2-0.2-0.3-0.4-0.3c-0.2,0-0.4,0-0.5,0.2c-2.9,2.7-12.2,2.9-17.8,0.5c-1.9-0.8-4.3-2.4-4.4-4.9 c0-0.1,0-0.2,0-0.3c0-0.3-0.3-0.6-0.6-0.6c0,0,0,0,0,0c0,0,0,0,0,0c-0.3,0-0.6,0.3-0.6,0.6c0,0.1,0,0.2,0,0.3 c-0.2,2.5-2.5,4-4.4,4.9c-5.6,2.4-14.9,2.2-17.8-0.5c-0.1-0.1-0.3-0.2-0.5-0.2c-0.2,0-0.3,0.1-0.4,0.3c-1.7,3.2-4,5.2-7,6.1 c-5.9,1.8-12.5-1.8-12.5-1.8c-0.2-0.1-0.5-0.1-0.7,0.1c-0.2,0.2-0.3,0.4-0.2,0.6l1.9,6.8c0.1,0.3,0.3,0.4,0.6,0.4 c0.1,0,0.1,0,0.2,0c0.3-0.1,0.5-0.4,0.4-0.7l-1.6-5.5c2.3,1,7.3,2.8,12.2,1.3c3.1-0.9,5.5-3,7.3-6.1c3.7,2.5,12.8,2.7,18.5,0.2 c2.2-1,3.8-2.3,4.5-3.8c0.8,1.5,2.3,2.8,4.5,3.8c5.7,2.5,14.8,2.3,18.5-0.2c1.8,3.1,4.3,5.2,7.3,6.1c4.9,1.4,9.9-0.3,12.2-1.3 l-1.6,5.5c-0.1,0.3,0.1,0.7,0.4,0.7c0.1,0,0.1,0,0.2,0C191.2,138.6,191.4,138.4,191.5,138.1z"/> <path class="st5" d="M170.9,142.8c0-2.1-1.7-3.8-3.8-3.8c-2.1,0-3.8,1.7-3.8,3.8c0,2.1,1.7,3.8,3.8,3.8 C169.2,146.6,170.9,144.9,170.9,142.8z M164.8,142.8c0-1.3,1-2.3,2.3-2.3c1.3,0,2.3,1,2.3,2.3c0,1.3-1,2.3-2.3,2.3 C165.8,145,164.8,144,164.8,142.8z"/> <path class="st5" d="M178.8,144.7c0-1.2-0.9-2.1-2.1-2.1c-1.2,0-2.1,0.9-2.1,2.1c0,1.2,0.9,2.1,2.1,2.1 C177.9,146.8,178.8,145.9,178.8,144.7z"/> <path class="st5" d="M160.4,142.2c0-1.2-0.9-2.1-2.1-2.1c-1.2,0-2.1,0.9-2.1,2.1c0,1.2,0.9,2.1,2.1,2.1 C159.5,144.3,160.4,143.3,160.4,142.2z"/> <polygon class="st5" points="182.9,147 186.7,150.5 188,147 "/> <path class="st5" d="M206.3,132.9c3.2-0.3,4.2-3.2,4.2-3.2s4.2,2,5.3-2c1-4.1-2.6-5.7-2.6-5.7s1.3-2.1-1-3.8 c-2.3-1.7-5.7-1.3-5.7-1.3s1.3-3.7-1.5-6.2c-2.5-2.1-6-1-6.9-0.7c-0.7-0.6-3.6-3-6.7-1.9c-3.5,1.3-3.6,5.2-3.6,5.2s-3-1.6-5.8-0.8 c-2.8,0.8-2.3,3.2-2.3,3.2s-4,0.2-4.5,4.4c-0.5,4.2,4.2,3.8,4.2,3.8s-0.1,3,2.7,4.5c3.4,1.8,6.5-1.1,12.7-1c0,0,0,0,0,0 C200.6,129.5,202.5,133.3,206.3,132.9z M189.2,124.6c-0.8-1.4,0.6-2.8,0.6-2.8s-4.6-0.3-3.6-3.7c1-3.4,6-1.2,6-1.2s-1-3.7,1.3-4.9 c1.3-0.6,3.1,0.4,3.8,0.7c0,0,0,0,0,0c0,0,0.1,0,0.2,0c0.1,0,0.1,0,0.1,0c0.8-0.1,2.9-0.4,3.8,0.7c1.8,2-0.5,5.1-0.5,5.1 s5.5-0.2,5.2,3.3c-0.3,3.5-4.7,2.2-4.7,2.2s0.8,1.9-0.4,2.9c-1.6,1.2-5.5-0.7-6-1c0,0,0,0,0,0 C195.2,125.8,190.3,126.5,189.2,124.6z"/> <path class="st5" d="M199.5,120.9c0-1.7-1.4-3.1-3.1-3.1c-1.7,0-3.1,1.4-3.1,3.1c0,1.7,1.4,3.1,3.1,3.1 C198.1,124,199.5,122.6,199.5,120.9z M194.9,120.9c0-0.8,0.7-1.5,1.5-1.5c0.8,0,1.5,0.7,1.5,1.5c0,0.8-0.7,1.5-1.5,1.5 C195.6,122.4,194.9,121.7,194.9,120.9z"/> <path class="st5" d="M149.8,145.3l3.8-3l0-1.2l-3.8-3.2l-1,0l-3.7,3.4l0.1,1.2l3.7,2.8L149.8,145.3z M149.4,139.6l2.5,2.1l-2.6,2 l-2.5-1.9L149.4,139.6z"/> <path class="st5" d="M176.5,150.4c-7.3-1.4-16.9-2.2-27.2-2.2c-10.2,0-19.9,0.8-27.1,2.2c-8.2,1.6-12.2,3.7-12.2,6.5 c0,0.7,0.3,1.4,0.9,2.1c2.3-5.4,24-7.4,38.8-7.4c14.5,0,35.4,1.9,38.6,7c0.4-0.5,0.6-1.1,0.6-1.7 C188.7,154.1,184.7,152,176.5,150.4z"/> <path class="st5" d="M149.6,153.6c-23,0-37.1,3.7-37.1,6.4c0,0.1,0,0.2-0.1,0.4c2,1.2,5.2,2.3,9.7,3.1c7.3,1.4,16.9,2.2,27.1,2.2 c10.2,0,19.9-0.8,27.2-2.2c4.9-0.9,8.2-2.1,10.2-3.4c0,0,0,0,0-0.1C186.7,157.3,172.6,153.6,149.6,153.6z"/> <path class="st5" d="M103.9,52.9c2.1-2.7,7.7-2.1,7.7-2.1s-21.7-13.7-28.3-20C81,31.9,86,42.1,103.9,52.9z"/> <path class="st5" d="M107,65.1c5,3.8,5.2,9.1,6.6,10c6.3-2.5,11.1,2.2,11.1,2.2s-0.3-11.3-4.8-20C115.5,48.7,97.7,53.1,107,65.1z"/> <path class="st5" d="M82.1,36.2c0.2-1.8-1.8-4.5-1.8-4.5L54.1,0C54.1,0,47.8,8.6,82.1,36.2z"/> <path class="st5" d="M80.8,42.7c0.5-0.9,0.5-3.6,0.5-3.6S52.9,10.8,50.5,12C48.2,13.3,53.9,29.6,80.8,42.7z"/> <path class="st5" d="M83.9,39.1c0,0-3.6,9.5,7.2,14.9c5.1,2.6,8.1,2.5,10.4,2.7c0.4-1.4,1.4-2.9,1.4-2.9S91.4,48.6,83.9,39.1z"/> <path class="st5" d="M58.1,30.5c-1.4-1.1-2.5-1.1-3.9-0.9C52,41.8,83.5,55.7,83.5,55.7s1.6,0.4,3.2-1.4c-0.7-0.7-4.8-3.4-5-8.2 C81.7,46.1,66.4,37.2,58.1,30.5z"/> <path class="st5" d="M102.2,58.4c0,0-9.5-1.1-13.3-3c-2,0-2.5,1.8-2.7,2.7c-0.5,2.9,17.9,7,17.9,7S101.3,60.8,102.2,58.4z"/> <path class="st5" d="M77.8,64.2c7.2,4.3,16.3,6.6,16.3,6.6s-4.5-2.9-1.6-7.2c-8.1-1.4-9.1-5.7-9.1-5.7c-3.8-0.7-12.2-7.5-17.2-7.5 S69.9,59.5,77.8,64.2z"/> <path class="st5" d="M94.3,64.9c-2.6,1.3,2.5,8.6,12.9,11.5c10.4,2.9-1.4-9.3-2.3-9.3C99.3,66.7,96.1,64,94.3,64.9z"/> <path class="st5" d="M103.2,83.7c-0.5-3.4,1.3-5.9,1.3-5.9C98,75.1,75.8,64,75.3,69.4C77.6,76.4,102.9,81.4,103.2,83.7z"/> <path class="st5" d="M102.9,85.1c0,0-14-7-17.9-4.7c-3.9,2.3,6.8,9.7,12,8.4C98.6,87.5,99.8,86.8,102.9,85.1z"/> <path class="st5" d="M102.5,95.9c2.7-0.7,4.7-3.4,4.7-3.4s-4.5-2.2-4.3-5.2c0,0-5.6,2-6.6,5.6C95.2,96.4,99.8,96.6,102.5,95.9z"/> <path class="st5" d="M104.8,81.9c-0.5,3.8,3.8,3.2,3.8,3.2l7.9-0.5l-4.5-5.7C112,78.9,105.6,76.4,104.8,81.9z"/> <path class="st5" d="M115.1,92.5c4.7,0,8.8-2.9,8.8-2.9l-6.6-3.2c0,0-6.8,0.5-12.2,0.2C105.4,91.8,113.4,92.5,115.1,92.5z"/> <path class="st5" d="M109.3,101.1c0.4-1.6,2-4.5,6.6-6.8c-5.6,0.5-7.2-0.7-7.2-0.7s-3.9,3.2-5.9,4.7 C100.9,99.7,106.8,102.7,109.3,101.1z"/> <path class="st5" d="M119,104.9c0,0,1.6-3.9,5.9-6.1c-5.6-2.2-5.2-4.8-5.2-4.8s-8.1,3.8-8.4,8.2C110.9,106.7,119,104.9,119,104.9z "/> <path class="st5" d="M130.5,97.2c0,0-12.2,7.2-9.1,10.6c1.8,2,10.4-3.6,12-6.6C131.9,99.8,130.5,97.2,130.5,97.2z"/> <path class="st5" d="M121.9,93.2c-0.4,2.5,3.2,4.3,4.7,3.9c1.6-0.4,3-1.8,3-1.8l-2-5.7C127.6,89.6,124,92.5,121.9,93.2z"/> <path class="st5" d="M114.9,77.8c0,6.3,12,10.8,12,10.8s-1.4-4.1-2.2-9.3C120.9,78,118.5,75.3,114.9,77.8z"/> <path class="st5" d="M196.1,52.9c17.9-10.7,22.9-21,20.6-22c-6.6,6.3-28.3,20-28.3,20S194,50.2,196.1,52.9z"/> <path class="st5" d="M180,57.3c-4.5,8.6-4.8,20-4.8,20s4.8-4.7,11.1-2.2c1.4-0.9,1.6-6.3,6.6-10C202.3,53.1,184.5,48.7,180,57.3z"/> <path class="st5" d="M245.9,0l-26.2,31.7c0,0-2,2.7-1.8,4.5C252.1,8.6,245.9,0,245.9,0z"/> <path class="st5" d="M219.2,42.7C246,29.6,251.8,13.3,249.5,12c-2.3-1.3-30.8,27.1-30.8,27.1S218.6,41.8,219.2,42.7z"/> <path class="st5" d="M208.9,54c10.8-5.4,7.2-14.9,7.2-14.9c-7.5,9.5-19,14.7-19,14.7s1.1,1.4,1.4,2.9 C200.9,56.5,203.8,56.5,208.9,54z"/> <path class="st5" d="M245.9,29.6c-1.4-0.2-2.6-0.2-3.9,0.9c-8.4,6.7-23.7,15.6-23.7,15.6c-0.2,4.8-4.3,7.5-5,8.2 c1.6,1.8,3.2,1.4,3.2,1.4S248,41.8,245.9,29.6z"/> <path class="st5" d="M213.8,58.1c-0.2-0.9-0.7-2.7-2.7-2.7c-3.8,2-13.3,3-13.3,3c0.9,2.3-2,6.6-2,6.6S214.3,61,213.8,58.1z"/> <path class="st5" d="M233.9,50.4c-5,0-13.4,6.8-17.2,7.5c0,0-1.1,4.3-9.1,5.7c2.9,4.3-1.6,7.2-1.6,7.2s9.1-2.3,16.3-6.6 C230,59.5,238.9,50.4,233.9,50.4z"/> <path class="st5" d="M192.8,76.4c10.4-2.9,15.5-10.2,12.9-11.5c-1.8-0.9-5,1.8-10.6,2.1C194.2,67.1,182.4,79.2,192.8,76.4z"/> <path class="st5" d="M224.7,69.4c-0.5-5.4-22.8,5.7-29.2,8.4c0,0,1.8,2.5,1.3,5.9C197.1,81.4,222.4,76.4,224.7,69.4z"/> <path class="st5" d="M215,80.5c-3.9-2.3-17.9,4.7-17.9,4.7c3,1.6,4.3,2.3,5.9,3.8C208.2,90.2,219,82.8,215,80.5z"/> <path class="st5" d="M192.8,92.5c0,0,2,2.7,4.7,3.4c2.7,0.7,7.4,0.5,6.3-3c-1.1-3.6-6.6-5.6-6.6-5.6 C197.3,90.3,192.8,92.5,192.8,92.5z"/> <path class="st5" d="M195.1,81.9c-0.8-5.5-7.2-3-7.2-3l-4.5,5.7l7.9,0.5C191.4,85.1,195.7,85.7,195.1,81.9z"/> <path class="st5" d="M176.1,89.6c0,0,4.1,2.9,8.8,2.9c1.6,0,9.7-0.7,10-5.9c-5.4,0.4-12.2-0.2-12.2-0.2L176.1,89.6z"/> <path class="st5" d="M197.1,98.2c-2-1.4-5.9-4.7-5.9-4.7s-1.6,1.3-7.2,0.7c4.7,2.3,6.3,5.2,6.6,6.8 C193.2,102.7,199.1,99.7,197.1,98.2z"/> <path class="st5" d="M175.1,98.8c4.3,2.1,5.9,6.1,5.9,6.1s8.1,1.8,7.7-2.7c-0.4-4.5-8.4-8.2-8.4-8.2S180.6,96.6,175.1,98.8z"/> <path class="st5" d="M166.6,101.1c1.6,3,10.2,8.6,12,6.6c3.1-3.4-9.1-10.6-9.1-10.6S168.1,99.8,166.6,101.1z"/> <path class="st5" d="M170.4,95.4c0,0,1.4,1.4,3,1.8c1.4,0.3,5-1.4,4.7-3.9c-2.2-0.7-5.7-3.6-5.7-3.6L170.4,95.4z"/> <path class="st5" d="M173.1,88.5c0,0,12-4.5,12-10.8c-3.6-2.5-6,0.2-9.9,1.4C174.5,84.4,173.1,88.5,173.1,88.5z"/> <path class="st5" d="M111.4,24.7c-4-1.8-8.1-0.9-12.2-1.9C100.3,26.7,108.9,26.2,111.4,24.7z"/> <path class="st5" d="M114.7,24.6c-6.9,5.9-12.7,0.5-17,0.5c6.1,12,33.7-0.7,37.2,18.9c3.6,19.6,9.8,20.8,11.9,19.3 c-6.9-6.6,1-11.2,1-24.4c0-4.1-2.3-6.6-2.3-6.6s1,1,1-1.3c0-2.3-3.8-5.6-3.8-5.6s1-0.5,1.8-1.5c0.8-1-3.1-3.1-3.1-3.1 s0.8-0.3,0.8-1.5c0-1.3-2.5-2-2.5-2s0,0,1-1.5c1-1.5-3.3-1.3-3.3-1.3s4.6-2.3,3.8-3.8c-16,2-22.4-1.5-26.7-1.3 c-7.9,0.5-7.1,3.8-7.1,3.8c-7.1,0.5-11.7,4.6-11.5,11.4C95.9,24.6,99,14.7,114.7,24.6z M125.6,14.9c-1.1,0.9-3.4,2.4-4.9,2.4 c-2.5,0-2.7-1.3-4.5-2.4h-0.7C119,14.1,122.1,15.9,125.6,14.9z"/> <path class="st5" d="M199.5,22.9c-4.1,1-8.2,0.1-12.2,1.9C189.8,26.2,198.4,26.7,199.5,22.9z"/> <path class="st5" d="M151.9,63.3c2,1.5,8,0.5,11.5-19.1c3.6-19.6,31.5-7.1,37.6-19.1c-4.3,0-10.2,5.3-17-0.5 c15.8-9.9,18.8,0,18.8,0c0.3-6.9-4.3-10.9-11.4-11.4c0,0,0.8-3.3-7.1-3.8c-4.3-0.3-10.7,3.3-26.7,1.3c-0.8,1.5,3.8,3.8,3.8,3.8 s-4.3-0.3-3.3,1.3c1,1.5,1,1.5,1,1.5s-2.5,0.8-2.5,2c0,1.3,0.8,1.5,0.8,1.5s-3.8,2-3.1,3.1c0.8,1,1.8,1.5,1.8,1.5 s-3.8,3.3-3.8,5.6c0,2.3,1,1.3,1,1.3s-2.3,2.5-2.3,6.6C150.9,52.1,158.8,56.7,151.9,63.3z M183.2,14.9h-0.7 c-1.8,1.1-2,2.4-4.5,2.4c-1.4,0-3.7-1.6-4.9-2.4C176.6,15.9,179.7,14.1,183.2,14.9z"/> <path class="st5" d="M134.8,50.3c-3.8,10.9-14.5,29.5,1.8,53.2c2.8-4.1,5.9-6.9,12.7-4.1c6.9-2.8,9.9,0,12.7,4.1 c16.3-23.7,5.6-42.2,1.8-53.2c-3.3,18.8-14.5,15.8-14.5,15.8S138.2,69.2,134.8,50.3z M140.4,66.1c6.6,4.6,4.7,17.5,4.7,17.5 C142,81.7,140.2,69.2,140.4,66.1z M134.3,59c3.6,1,3.3,8.6,3.3,8.6C135.3,65.4,134.1,62.8,134.3,59z M132.8,66.4 c3.6,0.8,7.2,14.8,7.2,14.8C135.8,78,132.5,71.8,132.8,66.4z M131,75.8c2.7,0.5,8.5,11,8.5,11C136.3,84.9,129.7,80.9,131,75.8z M134.3,93.9c3.6,0.8,6.4,3.6,6.4,3.6C136.5,98.7,135.9,97.1,134.3,93.9z M132,85.7c5.9,0.8,11,10.9,11,10.9 C138.9,92,133.1,92.6,132,85.7z M140.7,82.9c3.6,0.8,6.4,13.7,6.4,13.7C142.9,93.4,140.4,88.3,140.7,82.9z M149.3,78.1 c0,0,5.1,1.7,0,17.8C144.3,79.8,149.3,78.1,149.3,78.1z M151.6,96.6c0,0,2.9-12.9,6.4-13.7C158.3,88.3,155.8,93.4,151.6,96.6z M158,97.5c0,0,2.9-2.7,6.4-3.6C162.8,97.1,162.2,98.7,158,97.5z M159.2,86.8c0,0,5.8-10.5,8.5-11C169,80.9,162.4,84.9,159.2,86.8 z M164.4,59c0.2,3.8-0.9,6.4-3.3,8.6C161.1,67.6,160.8,60,164.4,59z M165.9,66.4c0.3,5.4-3,11.6-7.2,14.8 C158.7,81.2,162.3,67.2,165.9,66.4z M166.6,85.7c-1,6.9-6.9,6.4-11,10.9C155.6,96.6,160.8,86.5,166.6,85.7z M158.3,66.1 c0.3,3.1-1.5,15.6-4.7,17.5C153.5,83.6,151.6,70.7,158.3,66.1z M149.3,68.2c0,0,5.1,0.8,0,8.6C144.3,69,149.3,68.2,149.3,68.2z"/> <path class="st5" d="M171.1,132.4c1,1.1,2.1,1.7,2.7,2c0.1,0,0.2,0.1,0.3,0.1c0.2,0,0.4-0.1,0.5-0.3c0.1-0.3,0-0.6-0.3-0.8 c-0.6-0.3-1.7-0.8-2.6-2l-0.3-0.4l-0.4,0.2c0,0-1.8,0.9-3.5,0.9c-0.3,0-0.6,0.3-0.6,0.6c0,0.3,0.3,0.6,0.6,0.6 C169,133.2,170.5,132.7,171.1,132.4z"/> <path class="st5" d="M145,132.1c0.3-0.1,3-0.8,4.3-2.1c1.3,1.3,3.4,2.1,3.5,2.1c0.1,0,0.1,0,0.2,0c0.2,0,0.5-0.1,0.5-0.4 c0.1-0.3,0-0.6-0.3-0.7c0,0-2.4-0.9-3.5-2.3l-0.5-0.6l-0.5,0.6c-0.7,1-3.3,1.9-4.2,2.1c-0.3,0.1-0.5,0.4-0.4,0.7 C144.4,132,144.7,132.2,145,132.1z"/> <path class="st5" d="M124.6,134.5c0.1,0,0.2,0,0.3-0.1c0.6-0.3,1.7-0.8,2.7-2c0.7,0.3,2.1,0.8,3.6,0.8c0.3,0,0.6-0.3,0.6-0.6 c0-0.3-0.3-0.6-0.6-0.6c-1.7,0-3.5-0.9-3.5-0.9l-0.4-0.2l-0.3,0.4c-0.9,1.2-2,1.7-2.6,2c-0.3,0.1-0.4,0.5-0.3,0.8 C124.2,134.4,124.4,134.5,124.6,134.5z"/> <path class="st5" d="M75.9,164.9c-0.7,0-1.3,0.6-1.3,1.3c0,0.7,0.6,1.3,1.3,1.3c0.7,0,1.3-0.6,1.3-1.3 C77.3,165.5,76.7,164.9,75.9,164.9z"/> <path class="st5" d="M144.5,188.4c-0.7,0-1.3,0.6-1.3,1.3c0,0.7,0.6,1.3,1.3,1.3c0.7,0,1.3-0.6,1.3-1.3 C145.8,189,145.2,188.4,144.5,188.4z"/> <path class="st5" d="M183.3,179.4c-0.7,0-1.3,0.6-1.3,1.3c0,0.7,0.6,1.3,1.3,1.3c0.7,0,1.3-0.6,1.3-1.3 C184.7,180,184.1,179.4,183.3,179.4z"/> <path class="st5" d="M229.5,163c-0.7,0-1.3,0.6-1.3,1.3c0,0.7,0.6,1.3,1.3,1.3c0.7,0,1.3-0.6,1.3-1.3 C230.8,163.6,230.2,163,229.5,163z"/> </g> <g> <g> <path class="st5" d="M72.9,255c-2.5,0-3.3-0.7-5.8-4.1l-7.2-9.7h1.6c3.8,0,6.8-1.7,6.8-5.3c0-3.4-2.8-4.7-6.8-4.7h-2.9v17.3 c0,5,0.2,6.2,1.8,6.4v0.2l-3.2-0.2L54,255v-0.2c1.7-0.2,1.8-1.4,1.8-6.4v-12.8c0-5-0.2-6.1-1.8-6.3v-0.2l4.5,0.2l2.9-0.2 c4.5-0.2,9.7,1.2,9.7,6.8c0,4.1-3.8,6.1-6.8,6.5l-0.2,0.3l6.2,8c1.4,1.7,2.8,3.2,4.2,4.2v0.2H72.9z"/> <path class="st5" d="M88.7,244.4v-8.8c0-5-0.1-6.1-1.7-6.3v-0.2l3.1,0.2l3.1-0.2v0.2c-1.7,0.2-1.8,1.3-1.8,6.3v8.8 c0,4.7,1.9,9.3,7.7,9.3c5.9,0,7.7-4.7,7.7-9.3v-8.8c0-5-0.2-6.1-1.8-6.3v-0.2l3.1,0.2l3.1-0.2v0.2c-1.7,0.3-1.7,1.3-1.7,6.3v8.8 c0,6.9-3.3,11.3-10.4,11.3S88.7,251.3,88.7,244.4z"/> <path class="st5" d="M135.8,231.2v17.3c0,5,0.2,6.2,1.8,6.4v0.2l-3.1-0.2l-3.3,0.2v-0.2c1.7-0.2,1.8-1.4,1.8-6.4v-17.3h-3.9 c-2.4,0-3.2,0.5-3.6,2.2h-0.2v-4.3l9.2,0.2l9.4-0.2v4.3h-0.2c-0.4-1.7-0.8-2.2-3.3-2.2H135.8z"/> <path class="st5" d="M162.8,240.3h14.5v-4.7c0-5-0.2-6.2-1.8-6.4V229l3.3,0.2l3.1-0.2v0.2c-1.7,0.2-1.8,1.4-1.8,6.4v12.8 c0,5,0.2,6.2,1.8,6.4v0.2l-3.1-0.2l-3.3,0.2v-0.2c1.7-0.2,1.8-1.4,1.8-6.4v-6h-14.5v6c0,5,0.2,6.2,1.8,6.4v0.2l-3.1-0.2l-3.2,0.2 v-0.2c1.7-0.2,1.8-1.4,1.8-6.4v-12.8c0-5-0.2-6.1-1.8-6.3v-0.2l3.2,0.2l3.2-0.2v0.2c-1.7,0.2-1.7,1.3-1.8,6.3V240.3z"/> <path class="st5" d="M200.6,229.2l3-0.2v0.2c-1.7,0.2-1.8,1.3-1.8,6.3v12.8c0,5,0.2,6.2,1.8,6.4v0.2l-3.1-0.2l-3.1,0.2v-0.2 c1.7-0.2,1.8-1.4,1.8-6.4v-12.8c0-5-0.2-6.1-1.8-6.3v-0.2L200.6,229.2z"/> <path class="st5" d="M242.3,256.3l-18.7-21.6h-0.5v13.7c0,4.7,0.2,6.2,1.8,6.4v0.2l-2.8-0.2l-2.9,0.2v-0.2 c1.7-0.2,1.8-1.7,1.8-6.4v-20.6l18.7,21.5h0.5v-13.6c0-4.7-0.2-6.2-1.8-6.4v-0.2l3,0.2l2.8-0.2v0.2c-1.7,0.2-1.9,1.7-1.9,6.4 V256.3z"/> </g> <g> <path class="st5" d="M78.2,289.9h0.2c0.9,2.4,2.8,2.9,4.6,2.9c2.6,0,3.9-1.2,3.9-3.1c0-1.7-0.9-2.7-3.5-4.2l-0.9-0.5 c-2.5-1.4-4.2-2.6-4.2-5.1c0-3,2.4-4.6,5.5-4.6c1.2,0,2.6,0.2,4.1,0.7v3.2h-0.1c-0.9-1.8-2.6-2.5-4.2-2.5c-2.3,0-3.5,1.2-3.5,2.7 c0,1.7,1,2.8,3.4,4l0.9,0.5c2.3,1.2,4.3,2.5,4.3,5.3c0,3.1-2.4,5.1-5.7,5.1c-1.5,0-3.3-0.3-4.8-0.9L78.2,289.9z"/> <path class="st5" d="M114.7,291.9c-1.5,1.3-3.5,2.4-6.6,2.4c-5.7,0-9.2-3.7-9.2-9.5c0-5.7,4.1-9.5,9.4-9.5c2.2,0,3.9,0.3,5.3,0.7 v3.3h-0.1c-0.8-1.8-3.4-2.5-5.2-2.5c-4.5,0-7.5,2.5-7.5,8.1c0,4.4,2.9,8.2,7.5,8.2c2.1,0,3.9-0.4,5.9-2.1h0.4V291.9z"/> <path class="st5" d="M127.8,283.6h10.1v-3.3c0-3.5-0.1-4.3-1.3-4.5v-0.1l2.3,0.1l2.2-0.1v0.1c-1.2,0.1-1.3,0.9-1.3,4.5v8.9 c0,3.5,0.1,4.3,1.3,4.5v0.1l-2.2-0.1l-2.3,0.1v-0.1c1.2-0.1,1.3-0.9,1.3-4.5v-4.2h-10.1v4.2c0,3.5,0.1,4.3,1.3,4.5v0.1l-2.2-0.1 l-2.2,0.1v-0.1c1.2-0.1,1.3-0.9,1.3-4.5v-8.9c0-3.5-0.1-4.3-1.3-4.4v-0.1l2.2,0.1l2.2-0.1v0.1c-1.2,0.1-1.2,0.9-1.3,4.4V283.6z"/> <path class="st5" d="M151.6,284.8c0-5.3,4-9.6,9.2-9.6c5.9,0,9.2,4.3,9.2,9.5c0,5.3-4,9.6-9.2,9.6 C154.8,294.3,151.6,290,151.6,284.8z M153.6,284.8c0,3.8,2.8,8,7.3,8c4.1,0,7.2-2.5,7.2-8c0-3.8-2.8-8-7.2-8 C156.8,276.7,153.6,279.3,153.6,284.8z"/> <path class="st5" d="M180.3,284.8c0-5.3,4-9.6,9.2-9.6c5.9,0,9.2,4.3,9.2,9.5c0,5.3-4,9.6-9.2,9.6 C183.5,294.3,180.3,290,180.3,284.8z M182.2,284.8c0,3.8,2.8,8,7.3,8c4.1,0,7.2-2.5,7.2-8c0-3.8-2.8-8-7.2-8 C185.4,276.7,182.2,279.3,182.2,284.8z"/> <path class="st5" d="M211.5,275.9l2.2-0.1v0.1c-1.2,0.1-1.3,0.9-1.3,4.4v8.4l0.3,3.8l3.1-0.1c3-0.1,3.5-0.2,4.2-1.3h0.1l-0.3,2.8 l-7.4-0.1l-3.2,0.1v-0.1c1.2-0.1,1.3-0.9,1.3-4.5v-8.9c0-3.5-0.1-4.3-1.3-4.4v-0.1L211.5,275.9z"/> </g> </g> <g> <path class="st9" d="M7.9,76l-5.3-0.1L0.2,76v-0.1c0.8-0.1,0.9-0.7,0.9-3.2v-6.4c0-2.5-0.1-3.1-0.9-3.2V63l2.3,0.1L7.7,63v1.9H7.6 c-0.1-0.7-0.9-0.8-2.1-0.9l-3-0.1v4.6h3c1.3,0,1.6,0,1.7-0.7h0.1l-0.1,1.2l0.1,1.3H7.3c-0.1-0.6-0.5-0.8-1.7-0.8l-3-0.1v3L2.8,75 l2.2-0.1c2.3-0.1,2.7-0.3,3-0.9h0.1L7.9,76z"/> <path class="st9" d="M15.4,73.2h0.1c0.6,1.7,2,2.1,3.3,2.1c1.8,0,2.8-0.9,2.8-2.3c0-1.2-0.6-2-2.5-3l-0.7-0.4c-1.8-1-3-1.9-3-3.6 c0-2.1,1.7-3.3,3.9-3.3c0.9,0,1.9,0.2,3,0.5v2.3h-0.1c-0.6-1.3-1.8-1.8-3-1.8c-1.7,0-2.5,0.8-2.5,2c0,1.2,0.7,2,2.5,2.9l0.7,0.3 c1.6,0.8,3.1,1.8,3.1,3.8c0,2.2-1.7,3.7-4.1,3.7c-1,0-2.4-0.2-3.4-0.6L15.4,73.2z"/> <path class="st9" d="M35.2,64.1v8.6c0,2.5,0.1,3.1,0.9,3.2V76l-1.6-0.1L32.9,76v-0.1c0.8-0.1,0.9-0.7,0.9-3.2v-8.6h-2 c-1.2,0-1.6,0.3-1.8,1.1h-0.1V63l4.6,0.1l4.7-0.1v2.1h-0.1c-0.2-0.8-0.4-1.1-1.7-1.1H35.2z"/> <path class="st9" d="M47.2,69.5l-1.4,0v-0.1c0.5-0.1,0.5-0.4,0.5-1.9v-3.7c0-1.5,0-1.8-0.5-1.8V62l1.4,0l1.6,0 c2.5,0,4.1,1,4.1,3.6c0,2.6-1.8,4-4.1,3.9L47.2,69.5z M47.2,67.4l0.1,1.6l1.5-0.1c2-0.1,3.2-1.2,3.2-3.4c0-2.2-1.1-3-3.2-3h-1.6 V67.4z"/> </g> <g> <path class="st9" d="M250.8,64.5h-2v-0.1l3.4-1.7V76H251l-0.2-0.2V64.5z"/> <path class="st9" d="M262.5,75l6.1-0.2l0.2,0.2l-0.1,1l-6.4-0.1l-2.2,0.1l-0.1-0.1l4-4.9c1.6-2,2.8-3.4,2.8-4.9 c0-1.3-1.2-2.4-2.8-2.4c-0.8,0-1.9,0.3-2.7,0.9l-0.4-1.1c0.9-0.5,2.2-0.9,3.3-0.9c2.5,0,4.1,1.4,4.1,3.4c0,1.9-1.6,3.8-3.5,5.9 l-2.4,2.9L262.5,75z"/> <path class="st9" d="M285.1,72.4c0,2.2-2.1,3.9-4.7,3.9c-2.3,0-4.2-1.6-4.2-3.7c0-2.1,1.5-3.1,3-3.9c-0.3-0.2-0.4-0.2-0.6-0.4 c-0.5-0.3-1-0.8-1.2-1.3c-0.2-0.4-0.3-0.9-0.3-1.4c0-1.7,1.6-3.1,3.6-3.1c2,0,3.5,1.3,3.5,3c0,1.3-0.8,2.3-2.3,3 C284.2,69.8,285.1,70.8,285.1,72.4z M277.7,72.6c0,1.5,1.3,2.7,3,2.7c1.7,0,3-1.1,3-2.6c0-0.6-0.3-1.2-0.8-1.7 c-0.5-0.5-1.3-1-2.6-1.6C279.1,69.8,277.7,70.9,277.7,72.6z M282.3,66.8c0.2-0.3,0.3-0.8,0.3-1.2c0-1.1-1-2.1-2.2-2.1 c-1.2,0-2.1,0.7-2.1,1.8c0,0.4,0.1,0.9,0.4,1.3c0.3,0.5,0.9,0.9,2.2,1.5C281.8,67.6,282.1,67.3,282.3,66.8z"/> <path class="st9" d="M298,73h-6.1l-0.1-0.1l6.5-9.9h1v8.7h1.9l-0.3,1.2h-1.6V76h-1.1l-0.2-0.2V73z M298,71.8v-6.2l-0.2-0.1 l-3.9,6.1l0.1,0.1H298z"/> </g> </g> </svg>